<?xml version="1.0" encoding="UTF-8"?><svg xmlns="http://www.w3.org/2000/svg" viewBox="0 0 1031.37749 599"><defs><style>.d{fill:#fff;}.e{fill:#919496;}.f{fill:#b40000;}</style></defs><g id="a"/><g id="b"><g id="c"><g><rect class="d" x="896.18876" y="322" width="104" height="94"/><polygon points="30.00139 24.51514 19.62968 24.51514 19.62968 .42847 11.70042 .42847 11.70042 31.0304 30.00139 31.0304 30.00139 24.51514"/><polygon points="51.17265 24.47284 42.17271 24.47284 42.17271 18.42944 50.52995 18.42944 50.52995 11.95764 42.17271 11.95764 42.17271 6.90033 51.17265 6.90033 51.17265 .42847 34.24345 .42847 34.24345 31.0304 51.17265 31.0304 51.17265 24.47284"/><path d="M71.53093,31.0304L80.74565,.42847h-8.65771l-3.85748,15.43005c-.14282,.62842-.30737,1.39972-.49249,2.31384-.18622,.91516-.3576,1.82928-.51422,2.74341-.15765,.91412-.26501,1.67059-.32159,2.27155-.05768-.60095-.1651-1.35742-.32166-2.27155-.1571-.91412-.32849-1.84302-.51422-2.78571-.18616-.94379-.35016-1.72882-.49298-2.35834L61.80198,.42847h-8.70056l9.17188,30.60193h9.25763Z"/><polygon points="100.67436 24.47284 91.67436 24.47284 91.67436 18.42944 100.0316 18.42944 100.0316 11.95764 91.67436 11.95764 91.67436 6.90033 100.67436 6.90033 100.67436 .42847 83.7451 .42847 83.7451 31.0304 100.67436 31.0304 100.67436 24.47284"/><polygon points="123.90404 24.51514 113.53233 24.51514 113.53233 .42847 105.60307 .42847 105.60307 31.0304 123.90404 31.0304 123.90404 24.51514"/><path d="M144.90391,31.45886c2.68579,0,4.90759-.401,6.66498-1.19977,1.75684-.79987,3.07825-1.88647,3.96436-3.25763,.88501-1.37115,1.32831-2.94232,1.32831-4.71448,0-2.11389-.6073-3.7644-1.82135-4.95044-1.2146-1.185-2.95081-1.94989-5.20752-2.29272v-.12909c1.77161-.54169,3.25018-1.44202,4.43622-2.70001,1.185-1.2569,1.7785-2.85663,1.7785-4.80017,0-2.37103-.85693-4.20032-2.57147-5.48584-1.71448-1.28546-4.0437-1.92871-6.98602-1.92871-2.34351,0-4.28601,.27191-5.8291,.81464-1.5426,.54279-2.95715,1.27173-4.24268,2.18585l3.12854,5.44244c.59991-.42853,1.39288-.86334,2.37842-1.30664,.98608-.44226,2.04993-.66443,3.19312-.66443,1.02887,0,1.83563,.19995,2.42175,.59985,.58508,.401,.87866,1.01465,.87866,1.84308,0,1.05695-.45758,1.88538-1.3717,2.48633-.91461,.59985-2.42865,.89929-4.54309,.89929h-1.80017v6.12903h1.75732c2.37152,0,3.97864,.28571,4.8219,.85699,.84216,.57239,1.26434,1.42938,1.26434,2.57202,0,1.02838-.35767,1.82086-1.07178,2.37842-.71417,.55756-1.97162,.83582-3.7713,.83582-1.08655,0-2.27155-.16394-3.55756-.49298-1.28546-.328-2.54346-.83588-3.7713-1.52142v6.77124c1.34265,.57239,2.65723,.98608,3.94269,1.24316,1.28601,.25708,2.81433,.38617,4.58594,.38617Z"/><path class="e" d="M100.19298,410.86456V215.85211c0-1.49603,1.21246-2.7085,2.7085-2.7085h52.54498v-48.17664l-73.09625-.02161c3.80627,3.56122,6.20239,8.61176,6.20239,14.22314,0,10.75299-8.74823,19.50122-19.50128,19.50122s-19.50122-8.74823-19.50122-19.50122c0-5.61554,2.39972-10.66937,6.211-14.23102l-14.61359-.00427v251.06696c0,1.47327-1.1781,2.67676-2.65088,2.70795l-31.88367,.67657,12.43219,32.50055c11.44458-.66687,70.13379-3.6626,136.40131,.49164v-38.80383h-52.54498c-1.49603,0-2.7085-1.21246-2.7085-2.7085Zm-31.85553,5.53729c-10.75305,0-19.50128-8.74823-19.50128-19.50122s8.74823-19.50128,19.50128-19.50128,19.50122,8.74823,19.50122,19.50128-8.74823,19.50122-19.50122,19.50122Z"/><path class="e" d="M353.70915,202.30957h454.48743c.18555,0,.3667,.0191,.54169,.05463,.17505-.03552,.3562-.05463,.54175-.05463h59.24219c.78082,0,1.52356,.33698,2.03778,.92468,.5152,.58771,.75012,1.36853,.64642,2.14301l-5.27795,39.46948c8.24188,2.27789,14.31927,9.82385,14.31927,18.78046,0,10.73169-8.71429,19.4635-19.43799,19.49811l-3.19293,23.87701c-.02966,.21954-.08569,.43433-.16718,.64014l-5.24615,13.21558c-.40948,1.0321-1.40771,1.70923-2.51752,1.70923h-38.78088v93.71436c0,1.49597-1.21246,2.7085-2.7085,2.7085H302.24754c-1.49603,0-2.7085-1.21252-2.7085-2.7085v-93.71436h-37.69745c-1.10986,0-2.10809-.67712-2.51752-1.70923l-5.24615-13.21558c-.08148-.20581-.13757-.42059-.16718-.64014l-3.30347-24.70251c-8.03033-2.41339-13.9007-9.86658-13.9007-18.67261,0-6.96655,3.68384-13.07428,9.19397-16.52405l-5.57996-41.72589c-.10315-.77448,.13226-1.5553,.64642-2.14301,.51422-.58771,1.25745-.92468,2.03827-.92468h108.53705v-37.28485l-193.92908-.05719v48.17609h53.62848c1.49603,0,2.7085,1.21246,2.7085,2.7085v195.01245c0,1.49603-1.21246,2.7085-2.7085,2.7085h-53.62848v38.94055c38.03503,2.46851,78.41241,7.31445,113.69067,16.32147,101.10925,25.81494,191.99451,68.71198,197.8183,71.48553,4.63251,1.00299,63.75726,13.24683,94.79138-6.4057,17.2995-10.95837,46.52545-16.73297,78.16687-15.4364,30.96265,1.26434,59.33057,8.97931,81.03516,21.90558l-16.21033-35.4259c-.42267-.92365-.29254-2.00702,.33698-2.80475,.63007-.79724,1.65576-1.17548,2.64978-.97919,.78503,.15552,79.25238,15.19086,141.40204-8.79736,.93372-.3587,1.98798-.17621,2.745,.47662,.75702,.65277,1.09241,1.67004,.87286,2.64502l-6.81409,30.26758c12.89264-3.71753,52.47925-14.89667,99.31592-25.84467v-82.01477h-53.62842c-1.49603,0-2.7085-1.21246-2.7085-2.7085V214.76868c0-1.49603,1.21246-2.7085,2.7085-2.7085h109.42371c1.49597,0,2.7085,1.21246,2.7085,2.7085v200.4295c0,1.49603-1.21252,2.7085-2.7085,2.7085h-53.62848v81.5097c24.49072-5.6933,50.86249-11.29218,76.37988-15.71149V165.22363l-672.25134-.19824v37.28418Zm13.00574,286.66541c-10.75299,0-19.50122-8.74823-19.50122-19.50128s8.74823-19.50122,19.50122-19.50122,19.50128,8.74823,19.50128,19.50122-8.74823,19.50128-19.50128,19.50128Zm414.94324,0c-10.75305,0-19.50122-8.74823-19.50122-19.50128s8.74817-19.50122,19.50122-19.50122,19.50122,8.74823,19.50122,19.50122-8.74817,19.50128-19.50122,19.50128Zm112.67389-22.75146c10.75305,0,19.50122,8.74823,19.50122,19.50128s-8.74817,19.50122-19.50122,19.50122-19.50122-8.74817-19.50122-19.50122,8.74817-19.50128,19.50122-19.50128Z"/><path d="M1028.67009,159.80768l-674.96094-.19934v-16.88593h30.33527c.59833,0,1.08344-.48511,1.08344-1.08337v-16.25104c0-.59833-.48511-1.08344-1.08344-1.08344-.59827,0-1.08337,.48511-1.08337,1.08344v15.1676h-59.58716v-15.1676c0-.59833-.48511-1.08344-1.08337-1.08344-.59833,0-1.08344,.48511-1.08344,1.08344v16.25104c0,.59827,.48511,1.08337,1.08344,1.08337h29.25183v16.88525l-193.92908-.05731v-52.5802h68.25439c.59833,0,1.08337-.48511,1.08337-1.08344v-16.25104c0-.59833-.48505-1.08337-1.08337-1.08337s-1.08344,.48505-1.08344,1.08337v15.16766H89.35893v-15.16766c0-.59833-.48511-1.08337-1.08344-1.08337-.59827,0-1.08337,.48505-1.08337,1.08337v16.25104c0,.59833,.48511,1.08344,1.08337,1.08344h67.17096v52.57959l-117.00641-.03461h-.00104c-.71838,0-1.40717,.28516-1.91504,.79297-.50781,.50787-.79346,1.19714-.79346,1.91553v251.12463l-33.07977,.70197c-.8808,.01904-1.69812,.46503-2.18958,1.19611-.49194,.73163-.59723,1.65631-.28247,2.47943l14.51752,37.9519c.42474,1.1109,1.5177,1.81445,2.71271,1.73462,.97119-.06561,64.95892-4.22742,138.03754,.37933v42.45367h-43.33606c-.59833,0-1.08344,.48511-1.08344,1.08337v16.25104c0,.59833,.48511,1.08344,1.08344,1.08344,.59827,0,1.08337-.48511,1.08337-1.08344v-15.1676h87.75562v15.1676c0,.59833,.48511,1.08344,1.08344,1.08344,.59827,0,1.08337-.48511,1.08337-1.08344v-16.25104c0-.59827-.48511-1.08337-1.08337-1.08337h-44.41956v-42.31128c37.62909,2.45587,77.51337,7.25543,112.35016,16.14984,103.45648,26.41376,196.17206,70.81,197.09674,71.25543,.1825,.08783,.37506,.15497,.57294,.2005,1.49969,.34222,22.26526,4.97107,46.17206,4.97107,18.22424,0,38.27411-2.69,53.0069-12.01953,30.92401-19.58752,112.18561-23.40271,161.08099,11.46667,.99719,.71155,2.3504,.66394,3.2973-.11688,.94586-.78082,1.24896-2.10016,.73846-3.21527l-17.96814-39.26807c18.15387,2.8349,81.17792,10.58221,134.57306-8.19061l-6.72894,29.88666c-.21106,.93793,.09045,1.91711,.79248,2.57312,.70148,.65698,1.69916,.89349,2.62018,.6189,.66119-.19617,46.06232-13.59979,102.19635-26.76123v57.59802h-47.66968c-.59888,0-1.08344,.48511-1.08344,1.08344v16.25104c0,.59827,.48456,1.08337,1.08344,1.08337,.59882,0,1.08337-.48511,1.08337-1.08337v-15.16766h94.25604v15.16766c0,.59827,.48456,1.08337,1.08344,1.08337,.59882,0,1.08337-.48511,1.08337-1.08337v-16.25104c0-.59833-.48456-1.08344-1.08337-1.08344h-46.58636v-58.10474c25.45959-5.93695,53.01453-11.78955,79.54443-16.3205,1.30127-.22217,2.25244-1.34998,2.25244-2.66986V162.51617c0-1.49548-1.2124-2.70795-2.7074-2.7085ZM351.8333,308.55444c.20209,.29572,.53644,.47241,.89459,.47241,.3576,0,.69244-.1767,.89453-.47186l7.77582-11.37787c.22644-.33221,.25128-.76178,.06348-1.11725-.18726-.35553-.55597-.5777-.95801-.5777h-6.79456v-87.75562h46.5863v205.8465h-95.33942V207.72656h46.5863v87.75562h-6.58875c-.40149,0-.77075,.22217-.95801,.5777-.18781,.35547-.16296,.78503,.06348,1.1167l7.77423,11.37787Zm-195.96521-46.5863c.20209,.29572,.53693,.47241,.89453,.47241,.35767,0,.6925-.1767,.89459-.47192l7.77533-11.37781c.22638-.33221,.25128-.76178,.06348-1.11725-.18732-.35553-.55603-.5777-.95807-.5777h-6.92468v-30.33527h50.91992v133.25854H105.60997V218.56061h49.83649v30.33527h-6.45862c-.40204,0-.77075,.22217-.95801,.5777-.18781,.35547-.16296,.78503,.06348,1.1167l7.77478,11.37787Zm-.42163,190.40875c-66.26752-4.15424-124.95673-1.15851-136.40131-.49164l-12.43219-32.50055,31.88367-.67657c1.47278-.03119,2.65088-1.23468,2.65088-2.70795V164.93323l14.61359,.00427c3.48676-3.25836,8.15277-5.27026,13.29022-5.27026,5.14166,0,9.81116,2.01508,13.29889,5.27814l73.09625,.02161v48.17664h-52.54498c-1.49603,0-2.7085,1.21246-2.7085,2.7085v195.01245c0,1.49603,1.21246,2.7085,2.7085,2.7085h52.54498v38.80383Zm1.31726-65.3493c-.3576,0-.6925,.1767-.89453,.47186l-7.77588,11.37787c-.22644,.33221-.25128,.76178-.06348,1.11725,.18726,.35547,.55597,.5777,.95801,.5777h6.45862v7.5838h-49.83649v-50.91992h102.92322v50.91992h-50.91992v-7.5838h6.92468c.40155,0,.77075-.22223,.95807-.5777,.18781-.35547,.1629-.78503-.06348-1.1167l-7.77429-11.37787c-.20209-.29572-.53638-.47241-.89453-.47241Zm792.59576,6.97284c-.20099-.29572-.53638-.47241-.89398-.47241s-.69299,.1767-.89404,.47186l-7.77533,11.37787c-.22742,.33221-.25177,.76178-.06451,1.11725,.18835,.35547,.55652,.5777,.95856,.5777h6.72363v5.41699h-50.91992v-94.25604h104.00665v94.25604h-50.91992v-5.41699h6.65912c.40204,0,.77026-.22223,.95856-.5777,.18732-.35547,.16296-.78503-.06451-1.11676l-7.77429-11.37781Zm76.60101,89.70447c-25.5174,4.41931-51.88916,10.01819-76.37988,15.71149v-81.5097h53.62848c1.49597,0,2.7085-1.21246,2.7085-2.7085V214.76868c0-1.49603-1.21252-2.7085-2.7085-2.7085h-109.42371c-1.49603,0-2.7085,1.21246-2.7085,2.7085v200.4295c0,1.49603,1.21246,2.7085,2.7085,2.7085h53.62842v82.01477c-46.83667,10.948-86.42328,22.12714-99.31592,25.84467l6.81409-30.26758c.21954-.97498-.11584-1.99225-.87286-2.64502-.75702-.65283-1.81128-.83533-2.745-.47662-62.14966,23.98822-140.617,8.95288-141.40204,8.79736-.99402-.19629-2.01971,.18195-2.64978,.97919-.62952,.79773-.75964,1.8811-.33698,2.80475l16.21033,35.4259c-21.70459-12.92627-50.07251-20.64124-81.03516-21.90558-31.64142-1.29657-60.86737,4.47803-78.16687,15.4364-31.03412,19.65253-90.15887,7.40869-94.79138,6.4057-5.82379-2.77356-96.70905-45.67059-197.8183-71.48553-35.27826-9.00702-75.65564-13.85297-113.69067-16.32147v-38.94055h53.62848c1.49603,0,2.7085-1.21246,2.7085-2.7085V215.85211c0-1.49603-1.21246-2.7085-2.7085-2.7085h-53.62848v-48.17609l193.92908,.05719v37.28485h-108.53705c-.78082,0-1.52405,.33698-2.03827,.92468-.51416,.58771-.74957,1.36853-.64642,2.14301l5.57996,41.72589c2.99481-1.875,6.52087-2.97717,10.30725-2.97717,10.75305,0,19.50128,8.74823,19.50128,19.50122s-8.74823,19.50128-19.50128,19.50128c-1.94696,0-3.82495-.29504-5.60052-.82867l3.30347,24.70251c.0296,.21954,.08569,.43433,.16718,.64014l5.24615,13.21558c.40942,1.0321,1.40765,1.70923,2.51752,1.70923h37.69745v93.71436c0,1.49597,1.21246,2.7085,2.7085,2.7085h505.94904c1.49603,0,2.7085-1.21252,2.7085-2.7085v-93.71436h38.78088c1.1098,0,2.10803-.67712,2.51752-1.70923l5.24615-13.21558c.08148-.20581,.13751-.42059,.16718-.64014l3.19293-23.87701c-.0213,.00006-.04187,.00317-.06323,.00317-10.75299,0-19.50122-8.74823-19.50122-19.50128s8.74823-19.50122,19.50122-19.50122c1.79639,0,3.52887,.26392,5.18195,.72076l5.27795-39.46948c.1037-.77448-.13123-1.5553-.64642-2.14301-.51422-.58771-1.25696-.92468-2.03778-.92468h-59.24219c-.18555,0-.3667,.0191-.54175,.05463-.17499-.03552-.35614-.05463-.54169-.05463H353.70915v-37.28418l672.25134,.19824V483.7049Zm-620.24799-70.13184V207.72656h399.77557v205.8465H405.71251Z"/><path class="d" d="M148.02983,249.47357c.18726-.35553,.55597-.5777,.95801-.5777h6.45862v-30.33527h-49.83649v133.25854h102.92322V218.56061h-50.91992v30.33527h6.92468c.40204,0,.77075,.22217,.95807,.5777,.18781,.35547,.1629,.78503-.06348,1.11725l-7.77533,11.37781c-.20209,.29523-.53693,.47192-.89459,.47192-.3576,0-.69244-.1767-.89453-.47241l-7.77478-11.37787c-.22644-.33167-.25128-.76123-.06348-1.1167Z"/><path class="d" d="M165.43254,398.87787c.22638,.33167,.25128,.76123,.06348,1.1167-.18732,.35547-.55652,.5777-.95807,.5777h-6.92468v7.5838h50.91992v-50.91992H105.60997v50.91992h49.83649v-7.5838h-6.45862c-.40204,0-.77075-.22223-.95801-.5777-.18781-.35547-.16296-.78503,.06348-1.11725l7.77588-11.37787c.20203-.29517,.53693-.47186,.89453-.47186,.35815,0,.69244,.1767,.89453,.47241l7.77429,11.37787Z"/><path class="d" d="M343.99559,296.05988c.18726-.35553,.55652-.5777,.95801-.5777h6.58875v-87.75562h-46.5863v205.8465h95.33942V207.72656h-46.5863v87.75562h6.79456c.40204,0,.77075,.22217,.95801,.5777,.18781,.35547,.16296,.78503-.06348,1.11725l-7.77582,11.37787c-.20209,.29517-.53693,.47186-.89453,.47186-.35815,0-.6925-.1767-.89459-.47241l-7.77423-11.37787c-.22644-.33167-.25128-.76123-.06348-1.1167Z"/><path d="M116.02128,75.56836c.36768-.48669,.55176-1.16382,.55176-2.03137,0-1.09399-.29303-1.91394-.8797-2.46198-.58667-.547-1.50079-.81995-2.74341-.81995h-2.5498v11.60321h1.31244v-4.81079h1.72931l2.32605,4.81079h1.50604l-2.63916-5.20013c.55652-.23914,1.01886-.60205,1.38647-1.08978Zm-3.0116,.27722h-1.29712v-4.33997h1.19238c.79559,0,1.38177,.16296,1.75946,.48773,.37769,.32483,.56659,.86121,.56659,1.60925,0,1.49493-.74066,2.24298-2.22131,2.24298Z"/><path d="M119.41331,71.6601c-.72107,1.05695-1.08075,2.51068-1.08075,4.36426,0,1.15857,.15393,2.19116,.46179,3.09576,.30841,.9046,.7829,1.6145,1.42407,2.12872,.64117,.51416,1.46375,.7713,2.46783,.7713,.96381,0,1.76898-.25397,2.41541-.76392,.64594-.50891,1.12787-1.21246,1.44629-2.11176,.31793-.89935,.47717-1.93408,.47717-3.10425,0-1.1701-.15924-2.2049-.47717-3.10419-.31842-.89929-.80035-1.60077-1.44629-2.10437-.64642-.5036-1.4516-.75543-2.41541-.75543-1.46112,0-2.55249,.52795-3.27295,1.58386Zm5.50165,.90247c.48242,.81256,.72314,1.97217,.72314,3.47766,0,1.51721-.24072,2.68103-.72314,3.49359-.48193,.81256-1.22998,1.21881-2.24353,1.21881-.99451,0-1.73724-.41156-2.22925-1.23468-.49194-.82312-.73792-1.98273-.73792-3.47772s.24335-2.65137,.73053-3.46918c.48669-.81891,1.23737-1.22729,2.25146-1.22729,1.00348,0,1.74677,.40625,2.2287,1.21881Z"/><path d="M130.59593,81.24884c.64117,.51416,1.46375,.7713,2.46783,.7713,.96381,0,1.76898-.25397,2.41541-.76392,.64594-.50891,1.12787-1.21246,1.44629-2.11176,.31793-.89935,.47717-1.93408,.47717-3.10425,0-1.1701-.15924-2.2049-.47717-3.10419-.31842-.89929-.80035-1.60077-1.44629-2.10437-.64642-.5036-1.4516-.75543-2.41541-.75543-1.46112,0-2.55249,.52795-3.27295,1.58386-.72107,1.05695-1.08081,2.51068-1.08081,4.36426,0,1.15857,.15399,2.19116,.46185,3.09576,.30841,.9046,.7829,1.6145,1.42407,2.12872Zm.21637-8.6778c.48669-.81891,1.23737-1.22729,2.25146-1.22729,1.00348,0,1.74677,.40625,2.2287,1.21881,.48242,.81256,.72314,1.97217,.72314,3.47766,0,1.51721-.24072,2.68103-.72314,3.49359-.48193,.81256-1.22998,1.21881-2.24353,1.21881-.99451,0-1.73724-.41156-2.22925-1.23468-.49194-.82312-.73792-1.98273-.73792-3.47772s.24329-2.65137,.73053-3.46918Z"/><path d="M143.88823,81.85828h1.10352l3.1756-9.99506h.05981c-.02008,.41266-.03967,.86438-.05981,1.35742-.01953,.49304-.0296,.96173-.0296,1.40613v7.23151h1.28229v-11.60321h-1.89331l-3.02692,9.49036h-.05981l-2.98199-9.49036h-1.90863v11.60321h1.22302v-7.18286c0-.47717-.01001-.9649-.03015-1.4632-.02008-.49835-.04443-.95331-.07458-1.36487h.05981l3.16077,10.01093Z"/><path d="M154.84709,71.2464l.62634,.95856c.35767-.28143,.71576-.5036,1.07336-.66656,.35815-.16187,.78027-.24335,1.26752-.24335,.54645,0,.97388,.15448,1.28229,.46344,.30792,.30786,.46234,.74481,.46234,1.30768,0,.66125-.20892,1.19238-.62634,1.59235-.41736,.40094-1.0141,.60199-1.78906,.60199h-.87976v1.21881h.84961c.86493,0,1.52826,.16718,1.99066,.5036,.46234,.33539,.69348,.86127,.69348,1.57648,0,.69299-.18671,1.24316-.55914,1.64941-.37292,.40631-.9718,.60944-1.797,.60944-.4375,0-.88452-.05927-1.34161-.17883-.45758-.11951-.88501-.29834-1.28229-.53638v1.34894c.39728,.20526,.80994,.35236,1.23737,.43805,.42743,.08673,.89984,.13013,1.41669,.13013,1.23206,0,2.15198-.31635,2.75818-.95013,.60626-.63373,.90936-1.45471,.90936-2.46198,0-.75861-.1936-1.38177-.58136-1.86951-.38776-.48669-.96436-.79559-1.72931-.92572v-.06561c.63586-.17249,1.13525-.49518,1.49817-.96704,.36285-.47083,.54431-1.0802,.54431-1.82825,0-.8443-.25336-1.53198-.76019-2.06311-.50732-.53113-1.25793-.79669-2.2514-.79669-.62634,0-1.1908,.10583-1.69232,.31744-.50201,.21051-.94214,.48981-1.31989,.83685Z"/><path d="M165.80601,82.02014c1.14313,0,1.96045-.52795,2.453-1.58386,.49194-1.05695,.73792-2.52124,.73792-4.39606,0-1.92871-.26343-3.40466-.79034-4.42883-.52686-1.02307-1.32727-1.53516-2.40057-1.53516-1.12366,0-1.93353,.51422-2.4303,1.54364-.49725,1.02948-.74536,2.5022-.74536,4.42035,0,2.0473,.26294,3.55603,.78979,4.52618,.52692,.96918,1.32202,1.45374,2.38586,1.45374Zm-1.45374-9.53058c.28302-.78607,.76758-1.17859,1.45374-1.17859,.66602,0,1.14789,.39252,1.44629,1.17859,.29834,.78503,.44751,1.96893,.44751,3.55066,0,1.60291-.14917,2.79742-.44751,3.5835-.2984,.78503-.78027,1.17755-1.44629,1.17755-.68616,0-1.17072-.39459-1.45374-1.18597-.28357-.79034-.4248-1.98273-.4248-3.57507,0-1.58173,.14124-2.76562,.4248-3.55066Z"/><path d="M174.54301,81.85828h1.25269v-2.58368h1.38654v-1.25165h-1.38654v-7.84937h-1.35687l-4.44312,7.91394v1.18707h4.5473v2.58368Zm-3.3396-3.83533l2.75824-4.90808c.09949-.18408,.20154-.39569,.30579-.63379,.10419-.23804,.20099-.46552,.29041-.68237h.04498c-.01007,.31421-.02222,.66333-.03705,1.04846-.01532,.38409-.02277,.79883-.02277,1.24316v3.93262h-3.3396Z"/><path d="M184.58513,80.9801c.59094-.58508,.88715-1.39764,.88715-2.43768,0-.85486-.19891-1.49707-.59668-1.92554-.39728-.42743-.91467-.70679-1.55054-.83691v-.08148c.59619-.11847,1.05377-.40625,1.3717-.86121s.47717-1.03473,.47717-1.73828c0-1.0083-.30841-1.73407-.92419-2.17847-.61682-.4433-1.51611-.66547-2.69897-.66547h-2.78839v11.60321h3.36975c1.04376,0,1.86157-.29309,2.453-.87817Zm-4.51025-9.50623h1.52087c.75488,0,1.31403,.14392,1.67694,.4306,.36292,.28674,.54437,.73425,.54437,1.34052,0,.6496-.15186,1.1405-.45447,1.47064-.30365,.33112-.84796,.49622-1.633,.49622h-1.65472v-3.73798Zm0,9.16553v-4.24152h1.72931c.81519,0,1.39923,.18408,1.75208,.55225s.52899,.86652,.52899,1.495c0,.68237-.164,1.21881-.492,1.60919-.32794,.38934-.88446,.58508-1.66949,.58508h-1.84888Z"/><path d="M189.03569,81.29749c.65594,.48248,1.46112,.72266,2.41541,.72266,.49725,0,.93213-.03809,1.30457-.11322,.37292-.07617,.72839-.18939,1.06647-.34174v-1.26752c-.34808,.13013-.70093,.23914-1.05853,.32483-.35815,.08673-.7359,.13013-1.13367,.13013-1.04321,0-1.83887-.42212-2.38531-1.26752-.547-.84534-.81995-1.98798-.81995-3.42902,0-.92041,.12164-1.73297,.36499-2.43762,.24335-.70355,.60413-1.2569,1.0813-1.65686,.47717-.401,1.05328-.60199,1.72931-.60199,.39728,0,.77289,.05713,1.12573,.17035,.35284,.11426,.67346,.25287,.96173,.41473l.492-1.21881c-.75543-.42218-1.6156-.63379-2.57947-.63379-.99396,0-1.82666,.25714-2.49744,.77234-.67078,.51422-1.18018,1.21887-1.52826,2.11285-.34808,.89301-.52161,1.91504-.52161,3.06293,0,1.23474,.16608,2.29907,.49939,3.19312,.3327,.89398,.82733,1.58173,1.48334,2.06415Z"/><path d="M202.20842,80.36328c.8501-.99664,1.2749-2.47577,1.2749-4.43732,0-1.85254-.41473-3.26074-1.24475-4.22461-.83002-.9649-1.96576-1.44629-3.40729-1.44629h-2.90741v11.60321h2.66931c1.56006,0,2.76569-.49835,3.61523-1.495Zm-4.97211,.25922v-9.13275h1.44629c1.10297,0,1.94781,.36816,2.53448,1.10565,.58667,.73633,.8797,1.86841,.8797,3.39618,0,3.08728-1.21301,4.63092-3.63794,4.63092h-1.22253Z"/><path d="M101.11131,92.93243c.34753-.5036,.52161-1.13947,.52161-1.90863,0-1.14899-.32587-2.00708-.97656-2.57629-.65118-.56812-1.65259-.85272-3.00421-.85272h-2.87781v11.60321h2.17688v-4.48596h.99872l2.23669,4.48596h2.41541l-2.78839-5.07104c.51685-.29205,.94958-.68982,1.29767-1.19452Zm-2.125-.55969c-.29309,.28143-.75812,.42218-1.39398,.42218h-.64111v-3.23438h.59619c.63635,0,1.10828,.1217,1.41669,.36609,.30786,.24335,.46234,.64221,.46234,1.19452,0,.55225-.14709,.96912-.44012,1.25159Z"/><path d="M105.65861,96.41858h3.32483l.6861,2.77942h2.34088l-3.35498-11.63599h-2.71381l-3.32477,11.63599h2.34082l.70093-2.77942Zm1.16278-4.8584c.03967-.17346,.09204-.39569,.15656-.6665,.06458-.27087,.12909-.547,.19415-.82947,.06458-.28143,.11163-.52478,.14124-.73114,.05981,.31427,.14178,.68878,.24603,1.12152,.10474,.43378,.19147,.80725,.26129,1.12146l.70044,2.82806h-2.40015l.70044-2.84393Z"/><path d="M119.19639,99.198h2.6842v-11.60321h-1.98328v5.41174c.01007,.46552,.0249,.94794,.04498,1.44629,.01959,.49829,.03912,1.01251,.05927,1.54364h-.04443l-4.07074-8.40167h-2.68365v11.60321h1.98273v-5.42761c-.0296-.95325-.07404-1.98798-.13385-3.10419h.05981l4.08496,8.5318Z"/><path d="M124.3928,90.30859c-.35284,.89929-.52899,1.93402-.52899,3.10419,0,1.21356,.164,2.26624,.492,3.16028,.32794,.89404,.81995,1.58173,1.47589,2.06415,.65594,.48248,1.47595,.72266,2.46039,.72266,.96387,0,1.83887-.1947,2.6239-.58508v-2.03137c-.42743,.18512-.83264,.33325-1.21515,.44751-.38245,.11322-.77289,.17035-1.17017,.17035-.82526,0-1.43414-.3407-1.82666-1.02417-.39301-.68237-.58875-1.65155-.58875-2.90845,0-1.20294,.20099-2.16998,.60358-2.90106s.99133-1.09717,1.76691-1.09717c.35809,0,.7157,.06775,1.0733,.20312,.35815,.13654,.70569,.30682,1.04376,.51208l.6861-1.93402c-.92468-.51947-1.87372-.77979-2.84766-.77979-.98444,0-1.81708,.255-2.49738,.76392-.6814,.50891-1.19824,1.2135-1.55109,2.11285Z"/><polygon points="140.9359 99.198 140.9359 87.59479 138.75902 87.59479 138.75902 92.16113 135.12102 92.16113 135.12102 87.59479 132.9442 87.59479 132.9442 99.198 135.12102 99.198 135.12102 94.17664 138.75902 94.17664 138.75902 99.198 140.9359 99.198"/><path d="M144.93937,98.61292c.68085,.49829,1.54309,.74695,2.58685,.74695,1.0437,0,1.90332-.24548,2.57941-.73956,.67609-.49194,1.18024-1.18811,1.51349-2.08746,.33276-.89929,.49939-1.94989,.49939-3.15283,0-1.21356-.164-2.26733-.492-3.16138-.32794-.89294-.82996-1.5838-1.50604-2.07159-.67609-.48773-1.53571-.73108-2.57947-.73108-1.56055,0-2.72119,.52795-3.48138,1.58386-.76068,1.05695-1.1405,2.51068-1.1405,4.36432,0,1.2019,.16608,2.25354,.49939,3.15179,.33276,.89929,.83954,1.59863,1.52087,2.09698Zm.81995-8.15833c.37299-.69299,.96649-1.04004,1.78168-1.04004,.80518,0,1.38922,.34387,1.75208,1.03156,.36292,.68878,.54437,1.66638,.54437,2.9339,0,1.27808-.18146,2.25671-.54437,2.9328-.36285,.67712-.95221,1.01569-1.76685,1.01569-.80518,0-1.39392-.34387-1.76691-1.03156-.37292-.68774-.55914-1.66003-.55914-2.91693s.18622-2.23138,.55914-2.92542Z"/><path d="M158.25389,88.99982c-.76068,1.05695-1.1405,2.51068-1.1405,4.36432,0,1.2019,.16608,2.25354,.49939,3.15179,.3327,.89929,.83954,1.59863,1.52087,2.09698,.68085,.49829,1.54309,.74695,2.58685,.74695,1.0437,0,1.90332-.24548,2.57941-.73956,.67609-.49194,1.18024-1.18811,1.51349-2.08746,.33276-.89929,.49939-1.94989,.49939-3.15283,0-1.21356-.164-2.26733-.492-3.16138-.32794-.89294-.83002-1.5838-1.50604-2.07159-.67609-.48773-1.53571-.73108-2.57947-.73108-1.56055,0-2.72119,.52795-3.48138,1.58386Zm1.69971,1.45477c.37299-.69299,.96649-1.04004,1.78168-1.04004,.80518,0,1.38916,.34387,1.75208,1.03156,.36292,.68878,.54437,1.66638,.54437,2.9339,0,1.27808-.18146,2.25671-.54437,2.9328-.36292,.67712-.95221,1.01569-1.76685,1.01569-.80518,0-1.39392-.34387-1.76691-1.03156-.37292-.68774-.55914-1.66003-.55914-2.91693s.18622-2.23138,.55914-2.92542Z"/><path d="M174.9456,92.18549c.27777-.46021,.41742-1.021,.41742-1.68225,0-1.03998-.33331-1.78485-.99933-2.2345s-1.6452-.67395-2.93701-.67395h-3.13116v11.60321h3.68292c1.12305,0,2.00757-.2984,2.65399-.89404,.64594-.59564,.96918-1.41876,.96918-2.47046,0-.8443-.164-1.47272-.492-1.88538-.32849-.41156-.76599-.68768-1.31244-.82843v-.08142c.48718-.10791,.86969-.39252,1.14844-.85278Zm-4.47327-2.64081h1.02893c.55652,0,.96912,.10266,1.23737,.30896,.26819,.20526,.40253,.53113,.40253,.97443,0,.46655-.11688,.81573-.35016,1.04846-.23383,.23279-.63379,.34918-1.20032,.34918h-1.11835v-2.68103Zm2.51227,7.25586c-.2439,.28778-.65387,.4306-1.22992,.4306h-1.28235v-3.12006h1.2077c.60626,0,1.03638,.13544,1.28973,.40625,.25342,.27087,.38037,.63379,.38037,1.08868,0,.51001-.12219,.90778-.36554,1.19452Z"/><polygon points="181.32646 88.92682 181.32646 87.59479 176.79393 87.59479 176.79393 88.92682 177.97154 89.49603 177.97154 97.29675 176.79393 97.86487 176.79393 99.198 181.32646 99.198 181.32646 97.86487 180.14836 97.29675 180.14836 89.49603 181.32646 88.92682"/><rect x="182.22105" y="93.8349" width="3.83209" height="1.9986"/><path d="M191.46593,99.198l1.26697-5.88361c.03967-.21582,.09204-.50043,.15656-.85278,.06458-.35229,.12433-.70355,.17938-1.05585,.05444-.35236,.09149-.63696,.11157-.85382,.01959,.26025,.05981,.56921,.11957,.92682,.05927,.3576,.11902,.70459,.17883,1.03998,.05975,.33539,.10419,.60095,.13379,.79565l1.28235,5.88361h2.47522l2.48999-11.60321h-2.16205l-1.22253,6.15869c-.04968,.29303-.10681,.62317-.17139,.99133-.06506,.36816-.12433,.73743-.17877,1.10565-.05505,.36816-.09735,.69824-.12695,.99133-.02966-.29309-.07196-.62848-.12646-1.0083-.05499-.37878-.11481-.74695-.17932-1.10455s-.12164-.64435-.17139-.86121l-1.3421-6.27295h-1.98273l-1.38647,6.27295c-.05029,.21686-.1048,.50043-.164,.85272-.05981,.35236-.11957,.71838-.17938,1.09717-.0592,.37878-.10419,.72052-.13379,1.02417-.03015-.28247-.07251-.61261-.12695-.99133-.0545-.37982-.11432-.75653-.17883-1.13-.06506-.37347-.12164-.69617-.17139-.96698l-1.2077-6.15869h-2.14728l2.49005,11.60321h2.47522Z"/><path d="M199.48723,99.198h2.34082l.70093-2.77942h3.32483l.6861,2.77942h2.34088l-3.35498-11.63599h-2.71381l-3.32477,11.63599Zm4.20453-7.63782c.03967-.17346,.09204-.39569,.15662-.6665,.06451-.27087,.12903-.547,.19409-.82947,.06458-.28143,.11163-.52478,.1413-.73114,.05975,.31427,.14172,.68878,.24597,1.12152,.10474,.43378,.19147,.80725,.26129,1.12146l.70044,2.82806h-2.40009l.70038-2.84393Z"/><path d="M212.05583,93.77039c-.0296-.95325-.07404-1.98798-.13379-3.10419h.05975l4.08496,8.5318h2.6842v-11.60321h-1.98328v5.41174c.01007,.46552,.0249,.94794,.04498,1.44629,.01959,.49829,.03912,1.01251,.05927,1.54364h-.04443l-4.07068-8.40167h-2.68365v11.60321h1.98267v-5.42761Z"/><path d="M317.98173,99.40643c.59088-.58508,.88715-1.39764,.88715-2.43768,0-.85486-.19891-1.49707-.59674-1.9256-.39728-.42743-.91461-.70673-1.55048-.83685v-.08148c.59619-.11847,1.05377-.40625,1.3717-.86121s.47717-1.03473,.47717-1.73834c0-1.00824-.30841-1.73407-.92419-2.17841-.61682-.4433-1.51611-.66553-2.69897-.66553h-2.78839v11.60321h3.36975c1.04376,0,1.86157-.29303,2.453-.87811Zm-4.51031-9.50623h1.52094c.75488,0,1.31403,.14386,1.67694,.4306,.36292,.28668,.54431,.73425,.54431,1.34052,0,.6496-.15179,1.1405-.45441,1.47058-.30365,.33118-.84796,.49622-1.633,.49622h-1.65479v-3.73792Zm0,9.16553v-4.24158h1.72937c.81519,0,1.39917,.18408,1.75201,.55231,.35284,.36816,.52905,.86652,.52905,1.49493,0,.68243-.164,1.21887-.492,1.60925-.328,.38934-.88446,.58508-1.66956,.58508h-1.84888Z"/><path d="M322.04448,96.67676h3.57874l1.10352,3.60779h1.35638l-3.59302-11.63599h-1.31244l-3.57819,11.63599h1.35687l1.08813-3.60779Zm1.38708-4.90814c.05927-.21686,.1264-.47925,.20099-.78821,.07465-.30896,.13654-.61469,.18622-.91833,.03015,.14178,.07251,.32269,.12695,.54486,.0545,.22217,.10956,.43909,.164,.6496,.0545,.21161,.0968,.38196,.12695,.51208l1.04376,3.62372h-2.89264l1.04376-3.62372Z"/><polygon points="334.74803 99.00012 330.72233 99.00012 330.72233 88.68134 329.40983 88.68134 329.40983 100.28455 334.74803 100.28455 334.74803 99.00012"/><polygon points="341.72563 99.00012 337.69987 99.00012 337.69987 88.68134 336.38743 88.68134 336.38743 100.28455 341.72563 100.28455 341.72563 99.00012"/><path d="M344.67796,95.47382h1.72937l2.32599,4.81073h1.5061l-2.63922-5.20013c.55652-.23907,1.01886-.60199,1.38654-1.08972,.36768-.48669,.55176-1.16382,.55176-2.03137,0-1.09399-.29309-1.91394-.87976-2.46198-.58667-.547-1.50079-.82001-2.74341-.82001h-2.5498v11.60321h1.31244v-4.81073Zm0-5.54187h1.19238c.79565,0,1.38177,.1629,1.75952,.48773,.37769,.32483,.56653,.86121,.56653,1.60925,0,1.49493-.7406,2.24298-2.22125,2.24298h-1.29718v-4.33997Z"/><path d="M353.18388,99.67517c.64111,.51416,1.46375,.77124,2.46777,.77124,.96387,0,1.76904-.25391,2.41547-.76385,.64594-.50891,1.12781-1.21246,1.44629-2.11182,.31793-.89929,.47717-1.93402,.47717-3.10419s-.15924-2.2049-.47717-3.10419c-.31848-.89929-.80035-1.60077-1.44629-2.10437-.64642-.50366-1.4516-.75543-2.41547-.75543-1.46112,0-2.55243,.52795-3.27295,1.58386-.72101,1.05695-1.08075,2.51062-1.08075,4.36426,0,1.15851,.15393,2.19116,.46185,3.09576,.30841,.9046,.7829,1.6145,1.42407,2.12872Zm.21637-8.67786c.48663-.81885,1.2373-1.22723,2.2514-1.22723,1.00354,0,1.74677,.40625,2.2287,1.21881,.48248,.81256,.72314,1.97211,.72314,3.47766,0,1.51721-.24066,2.68103-.72314,3.49353-.48193,.81256-1.22992,1.21887-2.24347,1.21887-.99457,0-1.7373-.41156-2.22925-1.23474-.492-.82312-.73798-1.98267-.73798-3.47766s.24335-2.65137,.73059-3.46924Z"/><path d="M363.56138,99.67517c.64111,.51416,1.46375,.77124,2.46777,.77124,.96387,0,1.76898-.25391,2.41547-.76385,.64587-.50891,1.12781-1.21246,1.44629-2.11182,.31793-.89929,.47717-1.93402,.47717-3.10419s-.15924-2.2049-.47717-3.10419c-.31848-.89929-.80042-1.60077-1.44629-2.10437-.64648-.50366-1.4516-.75543-2.41547-.75543-1.46112,0-2.55243,.52795-3.27295,1.58386-.72101,1.05695-1.08075,2.51062-1.08075,4.36426,0,1.15851,.15393,2.19116,.46179,3.09576,.30841,.9046,.78296,1.6145,1.42413,2.12872Zm.21637-8.67786c.48663-.81885,1.2373-1.22723,2.2514-1.22723,1.00354,0,1.74677,.40625,2.2287,1.21881,.48248,.81256,.72314,1.97211,.72314,3.47766,0,1.51721-.24066,2.68103-.72314,3.49353-.48193,.81256-1.22992,1.21887-2.24347,1.21887-.99457,0-1.7373-.41156-2.22925-1.23474-.492-.82312-.73798-1.98267-.73798-3.47766s.24335-2.65137,.73059-3.46924Z"/><path d="M373.73784,93.10175c0-.47717-.01007-.9649-.03015-1.46326-.02008-.49829-.04443-.95325-.07458-1.36481h.05975l3.16083,10.01086h1.10352l3.1756-9.995h.05975c-.02008,.4126-.03967,.86438-.05975,1.35742-.01959,.49304-.0296,.96173-.0296,1.40607v7.23151h1.28229v-11.60321h-1.89331l-3.02698,9.49036h-.05975l-2.98199-9.49036h-1.90869v11.60321h1.22308v-7.1828Z"/><polygon points="393.79136 99.01709 389.78099 99.01709 389.78099 94.85699 393.55333 94.85699 393.55333 93.60535 389.78099 93.60535 389.78099 89.94885 393.79136 89.94885 393.79136 88.68134 388.46849 88.68134 388.46849 100.28455 393.79136 100.28455 393.79136 99.01709"/><path d="M308.83421,117.78619c.67603,0,1.30188-.05927,1.87848-.17883,.5766-.11847,1.13843-.28143,1.68488-.48669v-6.01373h-3.89136v1.98273h1.75946v2.5191c-.17932,.0434-.37085,.08466-.57397,.1217-.20416,.03809-.44543,.05713-.72314,.05713-.5766,0-1.04901-.16504-1.41669-.49518-.36761-.33112-.63904-.79138-.81256-1.38171-.17401-.59039-.2608-1.276-.2608-2.05573,0-1.2453,.25555-2.22394,.76764-2.9339,.51202-.70886,1.2204-1.06433,2.125-1.06433,.41736,0,.81995,.0603,1.2077,.17877,.38721,.11957,.74011,.27087,1.05853,.45496l.68561-1.91711c-.40735-.21686-.86438-.39038-1.3717-.52051-.50677-.12909-1.03845-.1947-1.59552-.1947-1.09344,0-2.02289,.24438-2.78784,.73108-.76544,.48773-1.34735,1.17651-1.74463,2.06421-.39783,.88873-.59619,1.93933-.59619,3.15283,0,1.90656,.39514,3.38037,1.18494,4.42041,.79034,1.03998,1.93091,1.55951,3.42218,1.55951Z"/><path d="M313.4265,117.62427h2.34082l.70093-2.77936h3.32483l.6861,2.77936h2.34088l-3.35498-11.63599h-2.71381l-3.32477,11.63599Zm4.20453-7.63776c.03967-.17352,.09204-.39569,.15656-.66656,.06458-.27081,.12909-.547,.19415-.82947,.06458-.28143,.11163-.52478,.14124-.73108,.05981,.31421,.14178,.68878,.24603,1.12152,.10474,.43378,.19147,.80725,.26129,1.12146l.70044,2.82806h-2.40015l.70044-2.84393Z"/><polygon points="324.01237 106.02112 324.01237 117.62427 329.97642 117.62427 329.97642 115.62463 326.18925 115.62463 326.18925 106.02112 324.01237 106.02112"/><path d="M342.87358,111.67615l-3.10126,5.94751-3.35474-11.63538h-2.71381l-3.32477,11.63599h2.34082l.70093-2.77936h3.32483l.6861,2.77936h4.65155l2.08746-4.20874,2.04248,4.20874h2.44507l-3.16083-5.86664,2.89258-5.73651h-2.32599l-1.83411,3.98126-1.89331-3.98126h-2.34082l2.87781,5.65503Zm-8.99048,1.1543l.70044-2.84393c.03967-.17352,.09204-.39569,.15656-.66656,.06451-.27081,.12909-.547,.19415-.82947,.06451-.28143,.11163-.52478,.14124-.73108,.05975,.31421,.14178,.68878,.24597,1.12152,.10474,.43378,.19153,.80725,.26135,1.12146l.70038,2.82806h-2.40009Z"/><polygon points="351.81956 113.20392 351.81956 117.62427 353.98161 117.62427 353.98161 113.12244 357.14244 106.02112 354.83171 106.02112 352.90825 110.78217 350.98478 106.02112 348.65874 106.02112 351.81956 113.20392"/><path d="M364.00096,117.78619c1.14264,0,2.03247-.31427,2.66882-.94269,.63586-.62744,.95435-1.46222,.95435-2.5022,0-.85596-.2063-1.53308-.61896-2.03143-.4126-.49829-.99664-.95856-1.75208-1.38171-.43744-.2381-.78766-.44647-1.05109-.62531-.26349-.17877-.45709-.36292-.58142-.55231-.12427-.18933-.18622-.41998-.18622-.69086,0-.33539,.10425-.61151,.31268-.82843,.20892-.21686,.51208-.32587,.90985-.32587,.3576,0,.71576,.05713,1.07336,.17139,.35815,.11322,.75543,.27936,1.19293,.49518l.67078-1.93402c-.48724-.24866-.96649-.44122-1.4389-.57666-.47186-.13544-.96649-.20312-1.48334-.20312-1.05377,0-1.88379,.29309-2.48999,.87817-.60626,.58508-.9046,1.38599-.89459,2.40485,0,.67181,.11902,1.22412,.3576,1.6579,.23859,.43274,.53906,.78821,.90253,1.06433,.36237,.27618,.72314,.5174,1.08075,.72266,.59619,.33643,1.05322,.6369,1.3717,.90247,.31793,.26556,.47717,.60413,.47717,1.01569,0,.3576-.11163,.65277-.33539,.88556-.22382,.23279-.57928,.34912-1.06598,.34912-.46765,0-.94952-.08887-1.44629-.26764-.49725-.17883-.97919-.39252-1.44629-.64221v2.27472c.41736,.23907,.86224,.4126,1.33417,.52051,.47186,.10797,.96649,.16193,1.48383,.16193Z"/><polygon points="375.72056 106.02112 368.44407 106.02112 368.44407 108.01965 370.99388 108.01965 370.99388 117.62427 373.17076 117.62427 373.17076 108.01965 375.72056 108.01965 375.72056 106.02112"/><path d="M378.28465,114.84491h3.32477l.68616,2.77936h2.34082l-3.35492-11.63599h-2.71381l-3.32483,11.63599h2.34088l.70093-2.77936Zm1.16272-4.8584c.03967-.17352,.09204-.39569,.15662-.66656,.06451-.27081,.12909-.547,.19415-.82947,.06451-.28143,.11157-.52478,.14124-.73108,.05975,.31421,.14178,.68878,.24597,1.12152,.10474,.43378,.19153,.80725,.26135,1.12146l.70038,2.82806h-2.40009l.70038-2.84393Z"/><path d="M389.8397,117.78619c.67609,0,1.30188-.05927,1.87848-.17883,.5766-.11847,1.13843-.28143,1.68488-.48669v-6.01373h-3.89136v1.98273h1.75946v2.5191c-.17932,.0434-.37079,.08466-.57397,.1217-.20416,.03809-.44537,.05713-.72314,.05713-.5766,0-1.04901-.16504-1.41669-.49518-.36761-.33112-.63904-.79138-.8125-1.38171-.17407-.59039-.2608-1.276-.2608-2.05573,0-1.2453,.25549-2.22394,.76758-2.9339,.51208-.70886,1.2204-1.06433,2.125-1.06433,.41742,0,.81995,.0603,1.2077,.17877,.38727,.11957,.74011,.27087,1.05853,.45496l.68561-1.91711c-.40735-.21686-.86438-.39038-1.3717-.52051-.50677-.12909-1.03845-.1947-1.59546-.1947-1.09344,0-2.02295,.24438-2.7879,.73108-.76544,.48773-1.34735,1.17651-1.74463,2.06421-.39783,.88873-.59619,1.93933-.59619,3.15283,0,1.90656,.39514,3.38037,1.185,4.42041,.79028,1.03998,1.93085,1.55951,3.42212,1.55951Z"/><polygon points="401.26091 115.62463 397.80174 115.62463 397.80174 112.58606 401.02232 112.58606 401.02232 110.60333 397.80174 110.60333 397.80174 107.98688 401.26091 107.98688 401.26091 106.02112 395.62492 106.02112 395.62492 117.62427 401.26091 117.62427 401.26091 115.62463"/><path d="M338.90074,132.55072c.39252-.93744,.58875-2.07263,.58875-3.40472,0-1.8631-.37769-3.32318-1.13312-4.38013-.75543-1.05591-1.90387-1.58386-3.44434-1.58386-1.56055,0-2.72119,.52795-3.48138,1.58386-.76074,1.05695-1.14056,2.51068-1.14056,4.36426,0,1.18079,.164,2.2229,.492,3.1275s.82733,1.60925,1.49811,2.11285c.67133,.5036,1.52356,.75543,2.55725,.75543h.164l1.71503,2.60059h2.68365l-2.2663-3.12006c.78503-.43384,1.37384-1.11835,1.76691-2.05573Zm-2.23663-.47186c-.36292,.67712-.95221,1.01569-1.76691,1.01569-.80511,0-1.39392-.34387-1.76685-1.03156-.37299-.68774-.5592-1.66003-.5592-2.91699s.18622-2.23132,.5592-2.92535c.37292-.69299,.96649-1.04004,1.78168-1.04004,.80511,0,1.38916,.34387,1.75208,1.03156,.36285,.68878,.54431,1.66638,.54431,2.93384,0,1.27808-.18146,2.25677-.54431,2.93286Z"/><path d="M341.41246,123.36084v7.60498c0,1.31085,.33539,2.33185,1.00665,3.06396,.67078,.73108,1.64734,1.09613,2.92969,1.09613,1.33203,0,2.33344-.37878,3.00421-1.13739,.67126-.75751,1.00665-1.76581,1.00665-3.02271v-7.60498h-2.16205v7.3288c0,.8454-.14441,1.45691-.43219,1.83673-.28882,.37878-.74585,.56818-1.3717,.56818-.59668,0-1.04639-.17883-1.34949-.53644-.30365-.35657-.45496-.97443-.45496-1.8526v-7.34467h-2.17682Z"/><polygon points="357.32176 125.3266 357.32176 123.36084 351.68571 123.36084 351.68571 134.96405 357.32176 134.96405 357.32176 132.96436 353.86259 132.96436 353.86259 129.92578 357.08317 129.92578 357.08317 127.94305 353.86259 127.94305 353.86259 125.3266 357.32176 125.3266"/><path d="M359.24522,123.36084v7.60498c0,1.31085,.33539,2.33185,1.00665,3.06396,.67084,.73108,1.64734,1.09613,2.92969,1.09613,1.33203,0,2.33344-.37878,3.00421-1.13739,.67126-.75751,1.00665-1.76581,1.00665-3.02271v-7.60498h-2.16205v7.3288c0,.8454-.14441,1.45691-.43219,1.83673-.28882,.37878-.74585,.56818-1.3717,.56818-.59668,0-1.04633-.17883-1.34949-.53644-.30365-.35657-.45496-.97443-.45496-1.8526v-7.34467h-2.17682Z"/><polygon points="375.15452 125.3266 375.15452 123.36084 369.51848 123.36084 369.51848 134.96405 375.15452 134.96405 375.15452 132.96436 371.69536 132.96436 371.69536 129.92578 374.91594 129.92578 374.91594 127.94305 371.69536 127.94305 371.69536 125.3266 375.15452 125.3266"/><path d="M126.46599,518.62079l-2.63922-5.20007c.55652-.23914,1.01886-.60205,1.38654-1.08978,.36768-.48669,.55176-1.16382,.55176-2.03137,0-1.09399-.29309-1.91394-.87976-2.46198-.58667-.547-1.50079-.81995-2.74341-.81995h-2.5498v11.60315h1.3125v-4.81073h1.72931l2.32599,4.81073h1.5061Zm-4.26428-6.01263h-1.29712v-4.33997h1.19232c.79565,0,1.38177,.1629,1.75952,.48773,.37769,.32483,.56653,.86121,.56653,1.60925,0,1.49493-.7406,2.24298-2.22125,2.24298Z"/><path d="M134.29368,518.0188c.64594-.50891,1.12781-1.21246,1.44629-2.11176,.31793-.89935,.47717-1.93408,.47717-3.10425s-.15924-2.2049-.47717-3.10419c-.31848-.89929-.80035-1.60077-1.44629-2.10437-.64642-.5036-1.4516-.75543-2.41547-.75543-1.46106,0-2.55243,.52795-3.27295,1.58386-.72101,1.05695-1.08075,2.51062-1.08075,4.36426,0,1.15857,.15393,2.19116,.46185,3.09576,.30841,.9046,.7829,1.6145,1.42407,2.12872,.64111,.51416,1.46375,.7713,2.46777,.7713,.96387,0,1.76904-.25397,2.41547-.76392Zm-4.65948-1.73828c-.49194-.82318-.73798-1.98273-.73798-3.47772s.24335-2.65137,.73059-3.46918c.48669-.81891,1.2373-1.22729,2.2514-1.22729,1.00354,0,1.74683,.40625,2.2287,1.21881,.48248,.81256,.72314,1.97211,.72314,3.47766,0,1.51721-.24066,2.68103-.72314,3.49359-.48187,.81256-1.22992,1.21881-2.24347,1.21881-.99457,0-1.73724-.41156-2.22925-1.23468Z"/><path d="M146.11748,509.69861c-.31848-.89929-.80042-1.60077-1.44629-2.10437-.64648-.5036-1.4516-.75543-2.41547-.75543-1.46112,0-2.55243,.52795-3.27295,1.58386-.72101,1.05695-1.08075,2.51062-1.08075,4.36426,0,1.15857,.15393,2.19116,.46185,3.09576,.30841,.9046,.7829,1.6145,1.42407,2.12872,.64111,.51416,1.46375,.7713,2.46777,.7713,.96387,0,1.76898-.25397,2.41547-.76392,.64587-.50891,1.12781-1.21246,1.44629-2.11176,.31793-.89935,.47717-1.93408,.47717-3.10425s-.15924-2.2049-.47717-3.10419Zm-1.63306,6.59778c-.48193,.81256-1.22992,1.21881-2.24347,1.21881-.99457,0-1.7373-.41156-2.22925-1.23468-.492-.82318-.73798-1.98273-.73798-3.47772s.24335-2.65137,.73059-3.46918c.48663-.81891,1.2373-1.22729,2.2514-1.22729,1.00354,0,1.74677,.40625,2.2287,1.21881,.48248,.81256,.72314,1.97211,.72314,3.47766,0,1.51721-.24066,2.68103-.72314,3.49359Z"/><path d="M157.32976,511.38934v7.23145h1.28229v-11.60315h-1.89331l-3.02698,9.49036h-.05975l-2.98199-9.49036h-1.90869v11.60315h1.22308v-7.1828c0-.47717-.01007-.9649-.03015-1.46326-.02008-.49829-.04443-.95325-.07458-1.36481h.05975l3.16083,10.01086h1.10352l3.1756-9.995h.05981c-.02014,.4126-.03973,.86438-.05981,1.35742-.01959,.49304-.0296,.96173-.0296,1.40613Z"/><path d="M166.63334,517.58081c-.4375,0-.88446-.05927-1.34155-.17883-.45758-.11957-.88501-.29834-1.28229-.53638v1.34894c.39728,.20526,.80988,.35229,1.2373,.43805,.42743,.08673,.89984,.13013,1.41669,.13013,1.23206,0,2.15198-.31635,2.75824-.95013,.60626-.63373,.90936-1.45477,.90936-2.46198,0-.75861-.1936-1.38177-.58136-1.86951-.38776-.48669-.96442-.79559-1.72931-.92578v-.06555c.63586-.17249,1.13519-.49518,1.49811-.96704,.36292-.47083,.54437-1.0802,.54437-1.82825,0-.8443-.25342-1.53198-.76019-2.06311-.50732-.53113-1.258-.79669-2.25146-.79669-.62634,0-1.1908,.10583-1.69226,.31738-.50201,.21057-.94214,.48987-1.31989,.83691l.62634,.95856c.3576-.28143,.71576-.5036,1.07336-.66656,.35815-.16187,.78027-.24335,1.26752-.24335,.54645,0,.97388,.15448,1.28229,.46344,.30786,.30786,.46234,.74481,.46234,1.30768,0,.66125-.20898,1.19238-.62634,1.59235-.41736,.40094-1.0141,.60199-1.78906,.60199h-.87976v1.21881h.84955c.86493,0,1.52832,.16718,1.99066,.5036,.46234,.33539,.69354,.86127,.69354,1.57648,0,.69299-.18677,1.24316-.55914,1.64941-.37299,.40631-.9718,.60944-1.79706,.60944Z"/><path d="M178.18895,512.8028c0-1.92871-.26343-3.40466-.79034-4.42883-.52686-1.02307-1.32727-1.53516-2.40063-1.53516-1.1236,0-1.93347,.51422-2.43024,1.54364-.49725,1.02942-.74536,2.5022-.74536,4.42035,0,2.0473,.26294,3.55597,.78979,4.52618,.52692,.96912,1.32196,1.45374,2.3858,1.45374,1.14319,0,1.96051-.52795,2.453-1.58386,.492-1.05695,.73798-2.52124,.73798-4.39606Zm-1.74469,3.5835c-.29834,.78503-.78027,1.17755-1.44629,1.17755-.6861,0-1.17065-.39459-1.45367-1.18604-.28357-.79028-.4248-1.98267-.4248-3.57501,0-1.58173,.14124-2.76562,.4248-3.55066,.28302-.78613,.76758-1.17865,1.45367-1.17865,.66602,0,1.14795,.39252,1.44629,1.17865,.2984,.78503,.44757,1.96893,.44757,3.55066,0,1.60291-.14917,2.79742-.44757,3.5835Z"/><path d="M184.98771,518.62079v-2.58362h1.38654v-1.25165h-1.38654v-7.84937h-1.35687l-4.44312,7.91394v1.18707h4.5473v2.58362h1.25269Zm-4.59229-3.83527l2.75824-4.90808c.09943-.18414,.20154-.39569,.30573-.63379,.10425-.23804,.20105-.46552,.29047-.68237h.04492c-.01001,.31421-.02222,.66333-.03699,1.04846-.01538,.38403-.02277,.79883-.02277,1.24316v3.93262h-3.3396Z"/><path d="M190.22062,506.9848l-3.57819,11.63599h1.35693l1.08813-3.60779h3.57874l1.10352,3.60779h1.35632l-3.59296-11.63599h-1.3125Zm-.78979,6.74377l1.0437-3.62366c.05927-.21692,.12646-.47931,.20105-.78827,.07458-.3089,.13647-.61469,.18622-.91833,.03015,.14178,.07245,.32269,.12695,.54486,.0545,.22223,.1095,.43909,.164,.64966,.0545,.21161,.0968,.3819,.12695,.51208l1.0437,3.62366h-2.89258Z"/><path d="M92.99211,526.19299c.35815,0,.71576,.06769,1.07336,.20312,.35815,.13647,.70569,.30682,1.04376,.51208l.6861-1.93402c-.92468-.51947-1.87372-.77979-2.84766-.77979-.98444,0-1.81714,.255-2.49744,.76392-.68134,.50891-1.19818,1.2135-1.55103,2.11285-.35284,.89929-.52899,1.93402-.52899,3.10419,0,1.21356,.164,2.26624,.49194,3.16028,.328,.89404,.81995,1.58173,1.47595,2.06415,.65594,.48248,1.47589,.72266,2.46039,.72266,.96387,0,1.83881-.1947,2.6239-.58508v-2.03137c-.42749,.18512-.8327,.33325-1.21515,.44751-.38251,.11322-.77289,.17035-1.17017,.17035-.82526,0-1.43414-.3407-1.82666-1.02417-.39307-.68237-.58881-1.65155-.58881-2.90845,0-1.20294,.20105-2.16998,.60364-2.90106s.99133-1.09717,1.76685-1.09717Z"/><path d="M103.92137,524.90961c-.67609-.48773-1.53571-.73108-2.57941-.73108-1.56061,0-2.72119,.52795-3.48138,1.58386-.76074,1.05695-1.14056,2.51068-1.14056,4.36432,0,1.20184,.16614,2.25354,.49939,3.15179,.33276,.89929,.83954,1.59863,1.52087,2.09698,.68085,.49829,1.54315,.74695,2.58685,.74695s1.90338-.24548,2.57941-.73956c.67609-.49194,1.18024-1.18817,1.51349-2.08746,.33276-.89929,.49939-1.94989,.49939-3.15283,0-1.21356-.164-2.26733-.49194-3.16138-.328-.89294-.83002-1.5838-1.5061-2.07159Zm-.82733,8.16577c-.36292,.67712-.95221,1.01569-1.76691,1.01569-.80511,0-1.39392-.34387-1.76685-1.03156-.37299-.68774-.5592-1.66003-.5592-2.91693s.18622-2.23138,.5592-2.92542c.37292-.69299,.96649-1.04004,1.78168-1.04004,.80511,0,1.38916,.34387,1.75208,1.03156,.36285,.68878,.54431,1.66638,.54431,2.9339,0,1.27808-.18146,2.25671-.54431,2.9328Z"/><polygon points="110.07902 524.35736 107.90214 524.35736 107.90214 535.96057 113.86613 535.96057 113.86613 533.96094 110.07902 533.96094 110.07902 524.35736"/><polygon points="117.63847 524.35736 115.46165 524.35736 115.46165 535.96057 121.42564 535.96057 121.42564 533.96094 117.63847 533.96094 117.63847 524.35736"/><polygon points="123.02055 535.96057 128.6566 535.96057 128.6566 533.96094 125.19743 533.96094 125.19743 530.9223 128.41801 530.9223 128.41801 528.93958 125.19743 528.93958 125.19743 526.32312 128.6566 526.32312 128.6566 524.35736 123.02055 524.35736 123.02055 535.96057"/><path d="M134.8444,526.19299c.35809,0,.7157,.06769,1.0733,.20312,.35815,.13647,.70569,.30682,1.04376,.51208l.6861-1.93402c-.92468-.51947-1.87372-.77979-2.84766-.77979-.98444,0-1.81708,.255-2.49738,.76392-.6814,.50891-1.19824,1.2135-1.55109,2.11285-.35284,.89929-.52899,1.93402-.52899,3.10419,0,1.21356,.164,2.26624,.492,3.16028,.32794,.89404,.81995,1.58173,1.47589,2.06415,.65594,.48248,1.47595,.72266,2.46039,.72266,.96387,0,1.83887-.1947,2.6239-.58508v-2.03137c-.42743,.18512-.83264,.33325-1.21515,.44751-.38245,.11322-.77289,.17035-1.17017,.17035-.82526,0-1.43414-.3407-1.82666-1.02417-.39301-.68237-.58875-1.65155-.58875-2.90845,0-1.20294,.20099-2.16998,.60358-2.90106s.99133-1.09717,1.76691-1.09717Z"/><polygon points="138.37761 526.35596 140.92741 526.35596 140.92741 535.96057 143.10423 535.96057 143.10423 526.35596 145.6541 526.35596 145.6541 524.35736 138.37761 524.35736 138.37761 526.35596"/><path d="M153.66057,524.90961c-.67609-.48773-1.53571-.73108-2.57941-.73108-1.56061,0-2.72125,.52795-3.48138,1.58386-.76074,1.05695-1.14056,2.51068-1.14056,4.36432,0,1.20184,.16614,2.25354,.49939,3.15179,.33276,.89929,.83954,1.59863,1.52087,2.09698,.68085,.49829,1.54309,.74695,2.58685,.74695,1.0437,0,1.90338-.24548,2.57941-.73956,.67609-.49194,1.18024-1.18817,1.51349-2.08746,.33276-.89929,.49939-1.94989,.49939-3.15283,0-1.21356-.164-2.26733-.492-3.16138-.32794-.89294-.82996-1.5838-1.50604-2.07159Zm-.82739,8.16577c-.36285,.67712-.95221,1.01569-1.76685,1.01569-.80518,0-1.39392-.34387-1.76691-1.03156-.37292-.68774-.55914-1.66003-.55914-2.91693s.18622-2.23138,.55914-2.92542c.37299-.69299,.96649-1.04004,1.78174-1.04004,.80511,0,1.38916,.34387,1.75201,1.03156,.36292,.68878,.54437,1.66638,.54437,2.9339,0,1.27808-.18146,2.25671-.54437,2.9328Z"/><path d="M163.9788,529.69501c.34753-.5036,.52161-1.13947,.52161-1.90863,0-1.14899-.32587-2.00708-.97656-2.57629-.65118-.56812-1.65259-.85272-3.00421-.85272h-2.87781v11.60321h2.17688v-4.48596h.99878l2.23663,4.48596h2.41541l-2.78839-5.07104c.51685-.29205,.94958-.68982,1.29767-1.19452Zm-2.125-.55969c-.29309,.28143-.75806,.42218-1.39392,.42218h-.64117v-3.23438h.59619c.63641,0,1.10828,.1217,1.41669,.36609,.30786,.24335,.46234,.64221,.46234,1.19452,0,.55225-.14709,.96912-.44012,1.25159Z"/><path d="M170.16606,529.2644c-.4375-.23804-.78772-.44647-1.05115-.62531-.26343-.17877-.45703-.36285-.58136-.55225s-.18622-.42004-.18622-.69092c0-.33539,.10419-.61151,.31262-.82843,.20898-.21686,.51208-.32587,.90991-.32587,.3576,0,.71576,.05719,1.07336,.17145,.35809,.11316,.75537,.2793,1.19287,.49512l.67078-1.93402c-.48718-.24866-.96649-.44122-1.4389-.5766-.47186-.13544-.96649-.20319-1.48328-.20319-1.05383,0-1.88379,.29309-2.49005,.87817s-.9046,1.38599-.89453,2.40485c0,.67181,.11902,1.22412,.3576,1.6579,.23859,.43274,.53906,.78821,.90247,1.06439,.36237,.27612,.72314,.51733,1.08075,.7226,.59619,.33643,1.05328,.6369,1.3717,.90247,.31793,.26556,.47717,.60413,.47717,1.01569,0,.3576-.11163,.65283-.33539,.88556-.22375,.23279-.57928,.34918-1.06592,.34918-.46765,0-.94958-.08887-1.44635-.2677-.49725-.17877-.97919-.39252-1.44629-.64221v2.27472c.41742,.23914,.8623,.41266,1.33417,.52057s.96649,.16187,1.48389,.16187c1.14264,0,2.03241-.31427,2.66882-.94269,.63586-.62738,.95428-1.46216,.95428-2.5022,0-.85596-.2063-1.53308-.6189-2.03137-.41266-.49835-.99664-.95856-1.75208-1.38177Z"/><path d="M181.19896,529.2644c-.43744-.23804-.78766-.44647-1.05109-.62531-.26349-.17877-.45709-.36285-.58142-.55225-.12427-.18939-.18616-.42004-.18616-.69092,0-.33539,.10419-.61151,.31262-.82843,.20892-.21686,.51208-.32587,.90985-.32587,.35767,0,.71576,.05719,1.07336,.17145,.35815,.11316,.75543,.2793,1.19293,.49512l.67078-1.93402c-.48724-.24866-.96649-.44122-1.4389-.5766-.47186-.13544-.96649-.20319-1.48334-.20319-1.05377,0-1.88379,.29309-2.48999,.87817-.60626,.58508-.9046,1.38599-.89459,2.40485,0,.67181,.11902,1.22412,.3576,1.6579,.23859,.43274,.53906,.78821,.90253,1.06439,.36237,.27612,.72314,.51733,1.08075,.7226,.59619,.33643,1.05322,.6369,1.3717,.90247,.31793,.26556,.47717,.60413,.47717,1.01569,0,.3576-.11163,.65283-.33539,.88556-.22382,.23279-.57928,.34918-1.06598,.34918-.46765,0-.94952-.08887-1.44629-.2677-.49725-.17877-.97919-.39252-1.44629-.64221v2.27472c.41736,.23914,.86224,.41266,1.33417,.52057,.47186,.10791,.96649,.16187,1.48383,.16187,1.14264,0,2.03247-.31427,2.66882-.94269,.63586-.62738,.95435-1.46216,.95435-2.5022,0-.85596-.2063-1.53308-.61896-2.03137-.4126-.49835-.99664-.95856-1.75208-1.38177Z"/><path d="M192.09862,524.90961c-.67609-.48773-1.53571-.73108-2.57947-.73108-1.56055,0-2.72119,.52795-3.48132,1.58386-.76074,1.05695-1.14056,2.51068-1.14056,4.36432,0,1.20184,.16608,2.25354,.49939,3.15179,.33276,.89929,.83954,1.59863,1.52087,2.09698,.68085,.49829,1.54309,.74695,2.58685,.74695,1.0437,0,1.90332-.24548,2.57941-.73956,.67609-.49194,1.18024-1.18817,1.51349-2.08746,.33276-.89929,.49939-1.94989,.49939-3.15283,0-1.21356-.164-2.26733-.492-3.16138-.32794-.89294-.82996-1.5838-1.50604-2.07159Zm-.82739,8.16577c-.36285,.67712-.95221,1.01569-1.76685,1.01569-.80518,0-1.39392-.34387-1.76691-1.03156-.37292-.68774-.55914-1.66003-.55914-2.91693s.18622-2.23138,.55914-2.92542c.37299-.69299,.96649-1.04004,1.78168-1.04004,.80518,0,1.38922,.34387,1.75208,1.03156,.36292,.68878,.54437,1.66638,.54437,2.9339,0,1.27808-.18146,2.25671-.54437,2.9328Z"/><path d="M200.28392,526.19299c.35809,0,.71576,.06769,1.07336,.20312,.35809,.13647,.70569,.30682,1.0437,.51208l.6861-1.93402c-.92468-.51947-1.87372-.77979-2.8476-.77979-.9845,0-1.81714,.255-2.49744,.76392-.6814,.50891-1.19818,1.2135-1.55109,2.11285-.35284,.89929-.52899,1.93402-.52899,3.10419,0,1.21356,.164,2.26624,.492,3.16028,.32794,.89404,.81995,1.58173,1.47589,2.06415,.65601,.48248,1.47595,.72266,2.46045,.72266,.96381,0,1.83881-.1947,2.62384-.58508v-2.03137c-.42743,.18512-.83264,.33325-1.21515,.44751-.38245,.11322-.77283,.17035-1.17017,.17035-.8252,0-1.43408-.3407-1.8266-1.02417-.39307-.68237-.58881-1.65155-.58881-2.90845,0-1.20294,.20105-2.16998,.60358-2.90106,.40259-.73108,.99139-1.09717,1.76691-1.09717Z"/><polygon points="204.01182 525.68939 205.18937 526.25861 205.18937 534.05933 204.01182 534.62744 204.01182 535.96057 208.54429 535.96057 208.54429 534.62744 207.36625 534.05933 207.36625 526.25861 208.54429 525.68939 208.54429 524.35736 204.01182 524.35736 204.01182 525.68939"/><path d="M212.33146,524.32452l-3.32477,11.63605h2.34082l.70093-2.77942h3.32483l.6861,2.77942h2.34082l-3.35492-11.63605h-2.71381Zm.17932,6.84216l.70044-2.84393c.03967-.17352,.09204-.39569,.15656-.6665,.06458-.27087,.12909-.547,.19415-.82953,.06451-.28143,.11163-.52472,.14124-.73108,.05981,.31427,.14178,.68878,.24597,1.12152,.1048,.43378,.19153,.80725,.26135,1.12146l.70038,2.82806h-2.40009Z"/><polygon points="221.76945 524.35736 219.59257 524.35736 219.59257 535.96057 225.55662 535.96057 225.55662 533.96094 221.76945 533.96094 221.76945 524.35736"/><path d="M913.84422,581.49835l-2.63867-5.20007c.55652-.23914,1.01886-.60205,1.38599-1.08978,.36816-.48669,.55225-1.16382,.55225-2.03137,0-1.09399-.29303-1.91394-.88025-2.46198-.58612-.547-1.50024-.81995-2.74341-.81995h-2.5498v11.60315h1.31299v-4.81073h1.72882l2.32654,4.81073h1.50555Zm-4.26379-6.01263h-1.29712v-4.33997h1.19238c.79559,0,1.38177,.1629,1.75946,.48773,.37775,.32483,.56604,.86121,.56604,1.60925,0,1.49493-.7406,2.24298-2.22076,2.24298Z"/><path d="M916.78868,580.88898c.64111,.51416,1.46429,.7713,2.46832,.7713,.96387,0,1.76898-.25397,2.41541-.76392,.64539-.50891,1.12787-1.21246,1.44635-2.11176,.31738-.89935,.47711-1.93408,.47711-3.10425s-.15973-2.2049-.47711-3.10419c-.31848-.89929-.80096-1.60077-1.44635-2.10437-.64642-.5036-1.45154-.75543-2.41541-.75543-1.46112,0-2.55298,.52795-3.2735,1.58386-.72052,1.05695-1.0802,2.51062-1.0802,4.36426,0,1.15851,.15338,2.19116,.46124,3.09576,.30896,.9046,.78296,1.6145,1.42413,2.12872Zm.21686-8.6778c.48669-.81891,1.23682-1.22729,2.25146-1.22729,1.00299,0,1.74677,.40625,2.22815,1.21881,.48248,.81256,.72369,1.97211,.72369,3.47766,0,1.51721-.24121,2.68103-.72369,3.49359-.48138,.8125-1.22937,1.21881-2.24298,1.21881-.99451,0-1.73724-.41156-2.22919-1.23468-.492-.82318-.73853-1.98273-.73853-3.47772s.24335-2.65137,.73108-3.46918Z"/><path d="M932.04942,570.4718c-.64648-.5036-1.4516-.75543-2.41547-.75543-1.46112,0-2.55194,.52795-3.2724,1.58386-.72156,1.05695-1.0813,2.51062-1.0813,4.36426,0,1.15851,.15448,2.19116,.46234,3.09576s.78296,1.6145,1.42407,2.12872c.64117,.51416,1.46326,.7713,2.46729,.7713,.96387,0,1.76898-.25397,2.41547-.76392,.64642-.50891,1.12781-1.21246,1.44629-2.11176,.31842-.89935,.47717-1.93408,.47717-3.10425s-.15875-2.2049-.47717-3.10419c-.31848-.89929-.79987-1.60077-1.44629-2.10437Zm-.18622,8.70215c-.48248,.8125-1.23047,1.21881-2.24408,1.21881-.99451,0-1.73724-.41156-2.22919-1.23468-.492-.82318-.73743-1.98273-.73743-3.47772s.24335-2.65137,.72998-3.46918c.48669-.81891,1.23792-1.22729,2.25146-1.22729,1.00403,0,1.74677,.40625,2.22925,1.21881,.48242,.81256,.7226,1.97211,.7226,3.47766,0,1.51721-.24017,2.68103-.7226,3.49359Z"/><path d="M944.79735,571.50336c-.02008,.4126-.03912,.86438-.0592,1.35742-.02014,.49304-.02966,.96173-.02966,1.40607v7.23151h1.28235v-11.60315h-1.89386l-3.02698,9.49036h-.05927l-2.98248-9.49036h-1.90869v11.60315h1.22308v-7.1828c0-.47717-.00952-.9649-.02966-1.46326-.02008-.49829-.04443-.95325-.07507-1.36481h.0603l3.16028,10.01086h1.10352l3.17615-9.995h.0592Z"/><path d="M956.80052,580.71014c.6062-.63373,.90881-1.45477,.90881-2.46198,0-.75861-.1936-1.38177-.58087-1.86951-.38824-.48669-.9649-.79559-1.72986-.92578v-.06555c.63586-.17249,1.13525-.49518,1.49817-.96704,.36292-.47083,.54486-1.0802,.54486-1.82825,0-.8443-.25391-1.53198-.76068-2.06311s-1.258-.79669-2.25146-.79669c-.62634,0-1.19025,.10583-1.69177,.31738-.50256,.21057-.94269,.48987-1.32037,.83691l.62634,.95856c.3576-.28143,.71625-.5036,1.07385-.66656,.3576-.16187,.77979-.24335,1.26752-.24335,.54596,0,.97339,.15448,1.28229,.46344,.30792,.30786,.4624,.74481,.4624,1.30768,0,.66125-.20953,1.19238-.62634,1.59235-.41797,.40094-1.01465,.60199-1.78912,.60199h-.88025v1.21881h.84955c.86548,0,1.52887,.16718,1.99121,.5036,.46234,.33539,.69299,.86127,.69299,1.57648,0,.69299-.18622,1.24316-.55865,1.64941-.37347,.40625-.97229,.60944-1.79755,.60944-.43695,0-.88452-.05927-1.34155-.17883-.45709-.11957-.88452-.29834-1.28229-.53638v1.34894c.39777,.20526,.81042,.35229,1.23785,.43799,.42743,.08679,.89929,.13019,1.41669,.13019,1.23151,0,2.15198-.31635,2.75824-.95013Z"/><path d="M962.3762,581.66028c1.14374,0,1.96051-.52795,2.45355-1.58386,.49194-1.05695,.73743-2.52124,.73743-4.39606,0-1.92871-.26343-3.40466-.79034-4.42883-.52692-1.02307-1.32672-1.53516-2.40063-1.53516-1.1236,0-1.93298,.51422-2.43024,1.54364s-.74487,2.5022-.74487,4.42035c0,2.04724,.26239,3.55597,.78931,4.52618,.52686,.96912,1.32251,1.45374,2.3858,1.45374Zm-1.45367-9.53058c.28351-.78613,.76807-1.17865,1.45367-1.17865,.66656,0,1.14795,.39252,1.44629,1.17865,.2984,.78503,.44757,1.96893,.44757,3.55066,0,1.60291-.14917,2.79742-.44757,3.5835-.29834,.78503-.77972,1.17755-1.44629,1.17755-.68561,0-1.17017-.39459-1.45367-1.18604-.28357-.79028-.42432-1.98267-.42432-3.57501,0-1.58173,.14075-2.76562,.42432-3.55066Z"/><path d="M972.63469,576.37866c-.38831-.48669-.9649-.79559-1.72986-.92578v-.06555c.63586-.17249,1.13525-.49518,1.49817-.96704,.36285-.47083,.54486-1.0802,.54486-1.82825,0-.8443-.25391-1.53198-.76074-2.06311-.50677-.53113-1.25793-.79669-2.2514-.79669-.62634,0-1.19031,.10583-1.69177,.31738-.50256,.21057-.94269,.48987-1.32037,.83691l.62634,.95856c.3576-.28143,.71625-.5036,1.07385-.66656,.3576-.16187,.77972-.24335,1.26752-.24335,.5459,0,.97333,.15448,1.28229,.46344,.30786,.30786,.46234,.74481,.46234,1.30768,0,.66125-.20947,1.19238-.62634,1.59235-.41791,.40094-1.01465,.60199-1.78906,.60199h-.88031v1.21881h.84961c.86542,0,1.52881,.16718,1.99115,.5036,.46234,.33539,.69299,.86127,.69299,1.57648,0,.69299-.18616,1.24316-.55859,1.64941-.37347,.40625-.97235,.60944-1.79755,.60944-.43701,0-.88452-.05927-1.34155-.17883-.45709-.11957-.88452-.29834-1.28235-.53638v1.34894c.39783,.20526,.81042,.35229,1.23785,.43799,.42749,.08679,.89935,.13019,1.41669,.13019,1.23157,0,2.15204-.31635,2.75824-.95013,.60626-.63373,.90881-1.45477,.90881-2.46198,0-.75861-.1936-1.38177-.58081-1.86951Z"/><path d="M982.50487,581.49835l-3.59302-11.63599h-1.31299l-3.57819,11.63599h1.35742l1.08765-3.60779h3.57922l1.10352,3.60779h1.35638Zm-5.69525-4.89221l1.04315-3.62372c.05927-.21686,.12695-.47925,.20105-.78821,.07513-.3089,.13647-.61469,.18622-.91833,.03064,.14178,.073,.32269,.12695,.54486,.05499,.22217,.11005,.43909,.164,.64966,.05499,.21155,.09729,.3819,.12695,.51202l1.04425,3.62372h-2.89258Z"/><path d="M989.76597,574.47742c.31848-.45496,.47717-1.03473,.47717-1.73828,0-1.0083-.30786-1.73413-.92365-2.17847-.61682-.4433-1.51611-.66547-2.69897-.66547h-2.78894v11.60315h3.36975c1.04431,0,1.86212-.29303,2.45355-.87811,.59039-.58508,.8866-1.39764,.8866-2.43768,0-.85486-.19891-1.49707-.59668-1.92554-.39679-.42749-.91412-.70679-1.54999-.83691v-.08148c.59564-.11847,1.05377-.40625,1.37115-.86121Zm-1.1405,2.11285c.35333,.36816,.52899,.86652,.52899,1.49493,0,.68243-.164,1.21887-.492,1.60925-.32794,.38934-.88446,.58508-1.66949,.58508h-1.84839v-4.24158h1.72882c.81573,0,1.39972,.18414,1.75208,.55231Zm-1.82617-1.73834h-1.65472v-3.73792h1.52039c.75543,0,1.31403,.14386,1.67694,.4306s.54486,.73425,.54486,1.34052c0,.6496-.15234,1.1405-.45496,1.47064-.30365,.33112-.84741,.49615-1.63251,.49615Z"/><path d="M888.69108,589.07056c.3576,0,.71521,.06769,1.07281,.20312,.35864,.13647,.70569,.30682,1.04425,.51208l.68561-1.93402c-.92474-.51947-1.87378-.77979-2.84711-.77979-.98505,0-1.81769,.255-2.49799,.76392-.68134,.50891-1.19763,1.2135-1.55103,2.11285-.35229,.89929-.52899,1.93402-.52899,3.10419,0,1.2135,.164,2.26624,.49194,3.16028,.328,.89398,.81995,1.58173,1.47595,2.06415,.65594,.48248,1.47589,.72266,2.46094,.72266,.96381,0,1.83881-.1947,2.62384-.58508v-2.03137c-.42743,.18512-.83264,.33325-1.21564,.44751-.38196,.11322-.77234,.17035-1.17017,.17035-.82526,0-1.43359-.3407-1.82611-1.02417-.39362-.68237-.58936-1.65155-.58936-2.90845,0-1.20294,.20105-2.16998,.60413-2.90106,.40204-.73108,.99139-1.09717,1.76691-1.09717Z"/><path d="M899.62034,587.78717c-.67609-.48773-1.53625-.73108-2.57947-.73108-1.56055,0-2.72119,.52795-3.48187,1.58386-.76074,1.05695-1.14056,2.51068-1.14056,4.36426,0,1.2019,.16614,2.2536,.49939,3.15186,.33325,.89929,.84003,1.59863,1.52142,2.09698,.6803,.49829,1.54254,.74695,2.58685,.74695,1.04315,0,1.90332-.24548,2.57941-.73956,.67609-.492,1.17969-1.18817,1.51294-2.08746,.33331-.89929,.49939-1.94989,.49939-3.15289,0-1.2135-.164-2.26727-.49194-3.16132-.328-.89294-.82953-1.5838-1.50555-2.07159Zm-.82739,8.16577c-.36292,.67712-.95221,1.01569-1.76685,1.01569-.80518,0-1.39447-.34387-1.76691-1.03156-.37347-.68774-.55969-1.66003-.55969-2.91699s.18622-2.23132,.55969-2.92535c.37244-.69299,.96594-1.04004,1.78168-1.04004,.80518,0,1.38916,.34387,1.75208,1.03156,.36292,.68878,.54382,1.66638,.54382,2.93384,0,1.27808-.18091,2.25677-.54382,2.93286Z"/><polygon points="905.77794 587.23492 903.60057 587.23492 903.60057 598.83813 909.56456 598.83813 909.56456 596.83844 905.77794 596.83844 905.77794 587.23492"/><polygon points="913.33745 587.23492 911.16002 587.23492 911.16002 598.83813 917.12407 598.83813 917.12407 596.83844 913.33745 596.83844 913.33745 587.23492"/><polygon points="918.71953 598.83813 924.35557 598.83813 924.35557 596.83844 920.89586 596.83844 920.89586 593.79987 924.11644 593.79987 924.11644 591.81714 920.89586 591.81714 920.89586 589.20068 924.35557 589.20068 924.35557 587.23492 918.71953 587.23492 918.71953 598.83813"/><path d="M930.54277,589.07056c.3587,0,.71631,.06769,1.07391,.20312,.3576,.13647,.70569,.30682,1.04321,.51208l.68665-1.93402c-.92474-.51947-1.87378-.77979-2.84821-.77979-.98395,0-1.81659,.255-2.49689,.76392-.68134,.50891-1.19873,1.2135-1.55103,2.11285-.35339,.89929-.52899,1.93402-.52899,3.10419,0,1.2135,.16394,2.26624,.49194,3.16028,.328,.89398,.81995,1.58173,1.47595,2.06415,.65594,.48248,1.47589,.72266,2.45984,.72266,.96387,0,1.83881-.1947,2.6239-.58508v-2.03137c-.42749,.18512-.8327,.33325-1.2146,.44751-.383,.11322-.77344,.17035-1.17017,.17035-.82526,0-1.43469-.3407-1.82721-1.02417-.39252-.68237-.58826-1.65155-.58826-2.90845,0-1.20294,.20105-2.16998,.60309-2.90106,.40308-.73108,.99133-1.09717,1.76685-1.09717Z"/><polygon points="934.07652 589.23352 936.62633 589.23352 936.62633 598.83813 938.80266 598.83813 938.80266 589.23352 941.35246 589.23352 941.35246 587.23492 934.07652 587.23492 934.07652 589.23352"/><path d="M949.35948,587.78717c-.67603-.48773-1.53619-.73108-2.57941-.73108-1.56055,0-2.72119,.52795-3.48193,1.58386-.76068,1.05695-1.1405,2.51068-1.1405,4.36426,0,1.2019,.16608,2.2536,.49939,3.15186,.33325,.89929,.84003,1.59863,1.52142,2.09698,.6803,.49829,1.54254,.74695,2.58679,.74695,1.04321,0,1.90338-.24548,2.57947-.73956,.67603-.492,1.17969-1.18817,1.51294-2.08746s.49939-1.94989,.49939-3.15289c0-1.2135-.164-2.26727-.492-3.16132-.32794-.89294-.82947-1.5838-1.50555-2.07159Zm-.82733,8.16577c-.36292,.67712-.95221,1.01569-1.76691,1.01569-.80511,0-1.39441-.34387-1.76685-1.03156-.37347-.68774-.55969-1.66003-.55969-2.91699s.18622-2.23132,.55969-2.92535c.37244-.69299,.96594-1.04004,1.78168-1.04004,.80518,0,1.38916,.34387,1.75208,1.03156,.36292,.68878,.54382,1.66638,.54382,2.93384,0,1.27808-.18091,2.25677-.54382,2.93286Z"/><path d="M959.67723,592.57257c.34808-.5036,.52161-1.13947,.52161-1.90863,0-1.14905-.32587-2.00708-.97656-2.57629-.6507-.56812-1.65259-.85272-3.00366-.85272h-2.87781v11.60321h2.17633v-4.48596h.99878l2.23663,4.48596h2.41541l-2.78784-5.07104c.5163-.29205,.94904-.68982,1.29712-1.19452Zm-2.12451-.55969c-.29303,.28143-.75854,.42218-1.39441,.42218h-.64117v-3.23438h.59674c.63586,0,1.10773,.1217,1.41663,.36609,.30792,.24335,.4624,.64221,.4624,1.19446,0,.55231-.14709,.96918-.44019,1.25165Z"/><path d="M965.86448,592.14197c-.43695-.23804-.78717-.44647-1.0506-.62531-.26349-.17877-.45709-.36285-.58191-.55225-.12378-.18939-.18622-.42004-.18622-.69092,0-.33539,.10474-.61151,.31317-.82843,.20844-.21686,.51208-.32587,.90985-.32587,.35767,0,.71527,.05713,1.07288,.17145,.35864,.11316,.75537,.2793,1.19342,.49512l.67078-1.93402c-.48773-.24866-.96704-.44122-1.4389-.57666-.47186-.13538-.96704-.20312-1.48334-.20312-1.05377,0-1.88428,.29309-2.49054,.87817s-.9046,1.38599-.89404,2.40485c0,.67181,.11853,1.22412,.3576,1.6579,.2381,.43274,.53857,.78821,.90253,1.06439,.36182,.27612,.7226,.51733,1.0802,.7226,.59674,.33643,1.05377,.6369,1.37225,.90247,.31738,.26556,.47717,.60413,.47717,1.01569,0,.3576-.11218,.65283-.33539,.88556-.2243,.23279-.57983,.34918-1.06647,.34918-.46765,0-.94904-.08887-1.44635-.2677-.49725-.17883-.97864-.39252-1.44629-.64221v2.27472c.41791,.23914,.8623,.4126,1.33417,.52057,.47186,.10791,.96704,.16187,1.48438,.16187,1.14264,0,2.03247-.31427,2.66833-.94269,.63586-.62744,.95428-1.46216,.95428-2.5022,0-.85596-.2063-1.53308-.6189-2.03137-.41266-.49835-.99664-.95856-1.75208-1.38177Z"/><path d="M976.89738,592.14197c-.43695-.23804-.78717-.44647-1.0506-.62531-.26343-.17877-.45703-.36285-.58191-.55225-.12378-.18939-.18622-.42004-.18622-.69092,0-.33539,.1048-.61151,.31317-.82843,.20844-.21686,.51208-.32587,.90991-.32587,.3576,0,.71521,.05713,1.07281,.17145,.3587,.11316,.75543,.2793,1.19342,.49512l.67078-1.93402c-.48773-.24866-.96698-.44122-1.43884-.57666-.47192-.13538-.96704-.20312-1.48334-.20312-1.05377,0-1.88434,.29309-2.4906,.87817-.6062,.58508-.9046,1.38599-.89398,2.40485,0,.67181,.11847,1.22412,.3576,1.6579,.23804,.43274,.53851,.78821,.90247,1.06439,.36188,.27612,.72266,.51733,1.08026,.7226,.59668,.33643,1.05377,.6369,1.37219,.90247,.31744,.26556,.47717,.60413,.47717,1.01569,0,.3576-.11212,.65283-.33539,.88556-.2243,.23279-.57977,.34918-1.06647,.34918-.46765,0-.94904-.08887-1.44629-.2677s-.97864-.39252-1.44629-.64221v2.27472c.41791,.23914,.86224,.4126,1.33411,.52057,.47192,.10791,.96704,.16187,1.48444,.16187,1.14264,0,2.03241-.31427,2.66827-.94269,.63586-.62744,.95435-1.46216,.95435-2.5022,0-.85596-.2063-1.53308-.61896-2.03137-.4126-.49835-.99664-.95856-1.75208-1.38177Z"/><polygon points="987.36534 587.23492 980.08836 587.23492 980.08836 589.23352 982.63817 589.23352 982.63817 598.83813 984.81553 598.83813 984.81553 589.23352 987.36534 589.23352 987.36534 587.23492"/><path d="M990.19768,587.20209l-3.32538,11.63605h2.34143l.70038-2.77942h3.32532l.68561,2.77942h2.34137l-3.35498-11.63605h-2.71375Zm.17877,6.84216l.70044-2.84393c.04016-.17352,.09204-.39569,.15656-.6665,.06451-.27087,.12909-.547,.1947-.82953,.06451-.28143,.11108-.52478,.14069-.73108,.0603,.31427,.14178,.68878,.24652,1.12152,.10474,.43378,.19147,.80725,.26135,1.12146l.70038,2.82806h-2.40063Z"/><path d="M1001.14171,594.30347h1.75946v2.5191c-.17987,.0434-.37134,.08466-.57446,.1217-.20422,.03809-.44543,.05713-.72266,.05713-.5766,0-1.04956-.16504-1.41669-.49518-.36816-.33112-.63904-.79138-.8125-1.38171-.17462-.59039-.26135-1.276-.26135-2.05573,0-1.2453,.25604-2.22394,.76813-2.9339,.51208-.70886,1.21985-1.06433,2.12445-1.06433,.41791,0,.82001,.0603,1.20825,.17883,.38727,.11951,.73956,.27081,1.05804,.4549l.68555-1.91711c-.40729-.21686-.86438-.39038-1.37115-.52051-.50677-.12909-1.03894-.1947-1.59546-.1947-1.09399,0-2.02295,.24445-2.7879,.73108-.76599,.48779-1.3479,1.17651-1.74463,2.06421-.39783,.88873-.59674,1.93933-.59674,3.15283,0,1.90656,.39569,3.38037,1.185,4.42041,.79034,1.04004,1.93085,1.55951,3.42267,1.55951,.67603,0,1.30133-.05927,1.87793-.17883,.57666-.11847,1.13843-.28143,1.68542-.48669v-6.01373h-3.89136v1.98273Z"/><polygon points="1007.25487 598.83813 1012.89091 598.83813 1012.89091 596.83844 1009.4312 596.83844 1009.4312 593.79987 1012.65178 593.79987 1012.65178 591.81714 1009.4312 591.81714 1009.4312 589.20068 1012.89091 589.20068 1012.89091 587.23492 1007.25487 587.23492 1007.25487 598.83813"/><path class="f" d="M68.33745,380.6496c-8.97516,0-16.25104,7.27582-16.25104,16.25104s7.27588,16.25104,16.25104,16.25104,16.25104-7.27588,16.25104-16.25104-7.27582-16.25104-16.25104-16.25104Zm1.18317,6.64142c.08368-.18475,.27344-.30426,.48315-.30426h4.5672c.1792,0,.40051,.11951,.48291,.3042,.08374,.18518,.04565,.40021-.0968,.54773l-2.28357,2.36591c-.19958,.2066-.57288,.2066-.77264,0l-2.28357-2.36584c-.14233-.14752-.18042-.36279-.09668-.54773Zm-7.77295,2.21643l2.28369-2.36584c.19952-.2066,.57281-.2066,.77252,0l2.28363,2.36584c.14246,.14758,.1806,.36292,.09674,.54773-.08356,.18481-.27338,.30438-.48303,.30438h-4.56726c-.20978,0-.39948-.11951-.48309-.30432-.08362-.18475-.04565-.40015,.0968-.54779Zm15.5838,13.25043c0,1.21039-1.00659,2.21698-2.24847,2.21698h-13.49109c-1.24188,0-2.24847-1.00836-2.24847-2.31177v-8.9624c0-1.21039,1.00659-2.21692,2.24847-2.21692h13.49109c1.24176,0,2.24847,1.00665,2.24847,2.24854v9.02557Z"/><path class="f" d="M72.83446,399.35358h-2.24847c-.9314,0-1.6864,.755-1.6864,1.6864v1.68634h5.62128v-1.68634c0-.9314-.755-1.6864-1.6864-1.6864Z"/><path class="f" d="M66.08897,399.35358h-2.24854c-.9314,0-1.6864,.755-1.6864,1.6864v1.68634h5.62128v-1.68634c0-.9314-.755-1.6864-1.68634-1.6864Z"/><path class="f" d="M71.72526,398.23151c.93201-.00348,1.68634-.75671,1.68634-1.6864,0-.93097-.75537-1.6828-1.68634-1.68634-.93103,.00354-1.6864,.75537-1.6864,1.68634,0,.93109,.75537,1.68292,1.6864,1.6864Z"/><path class="f" d="M64.97972,398.23151c.93213-.00348,1.6864-.75671,1.6864-1.6864,0-.93097-.75537-1.6828-1.6864-1.68634-.93103,.00354-1.6864,.75537-1.6864,1.68634,0,.93109,.75537,1.68292,1.6864,1.6864Z"/><path class="d" d="M68.33745,377.39935c-10.75305,0-19.50128,8.74823-19.50128,19.50128s8.74823,19.50122,19.50128,19.50122,19.50122-8.74823,19.50122-19.50122-8.74823-19.50128-19.50122-19.50128Zm0,35.75232c-8.97516,0-16.25104-7.27588-16.25104-16.25104s7.27588-16.25104,16.25104-16.25104,16.25104,7.27582,16.25104,16.25104-7.27582,16.25104-16.25104,16.25104Z"/><path class="d" d="M71.90086,390.20459c.19977,.2066,.57306,.2066,.77264,0l2.28357-2.36591c.14246-.14752,.18054-.36255,.0968-.54773-.0824-.18469-.30371-.3042-.48291-.3042h-4.5672c-.20972,0-.39948,.11951-.48315,.30426-.08374,.18494-.04565,.40021,.09668,.54773l2.28357,2.36584Z"/><path class="d" d="M75.08299,391.48376h-13.49109c-1.24188,0-2.24847,1.00653-2.24847,2.21692v8.9624c0,1.30341,1.00659,2.31177,2.24847,2.31177h13.49109c1.24188,0,2.24847-1.00659,2.24847-2.21698v-9.02557c0-1.24188-1.00671-2.24854-2.24847-2.24854Zm-3.35773,3.375c.93097,.00354,1.68634,.75537,1.68634,1.68634,0,.92969-.75433,1.68292-1.68634,1.6864-.93103-.00348-1.6864-.75531-1.6864-1.6864,0-.93097,.75537-1.6828,1.6864-1.68634Zm-6.74554,0c.93103,.00354,1.6864,.75537,1.6864,1.68634,0,.92969-.75427,1.68292-1.6864,1.6864-.93103-.00348-1.6864-.75531-1.6864-1.6864,0-.93097,.75537-1.6828,1.6864-1.68634Zm2.79559,7.86755h-5.62128v-1.68634c0-.9314,.755-1.6864,1.6864-1.6864h2.24854c.93134,0,1.68634,.755,1.68634,1.6864v1.68634Zm6.74554,0h-5.62128v-1.68634c0-.9314,.755-1.6864,1.6864-1.6864h2.24847c.9314,0,1.6864,.755,1.6864,1.6864v1.68634Z"/><path class="d" d="M62.13395,390.35956h4.56726c.20966,0,.39948-.11957,.48303-.30438,.08386-.18481,.04572-.40015-.09674-.54773l-2.28363-2.36584c-.19971-.2066-.573-.2066-.77252,0l-2.28369,2.36584c-.14246,.14764-.18042,.36304-.0968,.54779,.08362,.18481,.27332,.30432,.48309,.30432Z"/><path class="f" d="M69.05131,195.41956c8.97522,0,16.25104-7.27582,16.25104-16.25104s-7.27582-16.25104-16.25104-16.25104-16.25104,7.27582-16.25104,16.25104,7.27582,16.25104,16.25104,16.25104Zm1.18323-25.8606c.08356-.18481,.27344-.30426,.48303-.30426h4.56732c.1792,0,.40051,.11945,.48285,.3042,.08368,.18518,.04559,.40021-.09674,.54773l-2.28369,2.36584c-.19952,.20667-.57275,.20667-.77252,0l-2.28357-2.36578c-.1424-.14752-.18048-.36279-.09668-.54773Zm-7.77295,2.21643l2.28357-2.36584c.19958-.20667,.57294-.20667,.77264,0l2.28363,2.36584c.14233,.14752,.18054,.36279,.09674,.54773-.08368,.18481-.27344,.30426-.48309,.30426h-4.56726c-.20978,0-.39948-.11938-.48309-.3042s-.04565-.40021,.09686-.54779Zm-2.40436,4.19318c0-1.21033,1.00659-2.21692,2.24854-2.21692h13.49103c1.24188,0,2.24854,1.00671,2.24854,2.24847v9.0257c0,1.21033-1.00653,2.21686-2.24854,2.21686h-13.49103c-1.24194,0-2.24854-1.00824-2.24854-2.31171v-8.9624Z"/><path class="f" d="M68.48918,183.3078c0-.93134-.755-1.6864-1.6864-1.6864h-2.24847c-.93134,0-1.6864,.75507-1.6864,1.6864v1.6864h5.62128v-1.6864Z"/><path class="f" d="M75.23466,183.3078c0-.93134-.755-1.6864-1.68634-1.6864h-2.24854c-.93134,0-1.68634,.75507-1.68634,1.6864v1.6864h5.62122v-1.6864Z"/><path class="f" d="M65.69353,180.49945c.93213-.00348,1.6864-.75677,1.6864-1.6864,0-.93103-.75531-1.68286-1.6864-1.6864-.93097,.00354-1.68634,.75537-1.68634,1.6864,0,.93109,.75537,1.68292,1.68634,1.6864Z"/><path class="f" d="M72.43907,180.49945c.93213-.00348,1.6864-.75677,1.6864-1.6864,0-.93103-.75531-1.68286-1.6864-1.6864-.93097,.00354-1.6864,.75537-1.6864,1.6864,0,.93109,.75543,1.68292,1.6864,1.6864Z"/><path class="d" d="M69.05131,198.66974c10.75305,0,19.50128-8.74823,19.50128-19.50122,0-5.61139-2.39612-10.66193-6.20239-14.22314-3.48773-3.26306-8.15723-5.27814-13.29889-5.27814-5.13745,0-9.80347,2.0119-13.29022,5.27026-3.81128,3.56165-6.211,8.61548-6.211,14.23102,0,10.75299,8.74823,19.50122,19.50122,19.50122Zm0-35.75226c8.97522,0,16.25104,7.27582,16.25104,16.25104s-7.27582,16.25104-16.25104,16.25104-16.25104-7.27582-16.25104-16.25104,7.27582-16.25104,16.25104-16.25104Z"/><path class="d" d="M72.61479,172.47247c.19977,.20667,.573,.20667,.77252,0l2.28369-2.36584c.14233-.14752,.18042-.36255,.09674-.54773-.08234-.18475-.30365-.3042-.48285-.3042h-4.56732c-.20959,0-.39948,.11945-.48303,.30426-.0838,.18494-.04572,.40021,.09668,.54773l2.28357,2.36578Z"/><path class="d" d="M62.30577,187.24268h13.49103c1.242,0,2.24854-1.00653,2.24854-2.21686v-9.0257c0-1.24176-1.00665-2.24847-2.24854-2.24847h-13.49103c-1.24194,0-2.24854,1.00659-2.24854,2.21692v8.9624c0,1.30347,1.00659,2.31171,2.24854,2.31171Zm10.1333-10.11603c.93109,.00354,1.6864,.75537,1.6864,1.6864,0,.92963-.75427,1.68292-1.6864,1.6864-.93097-.00348-1.6864-.75531-1.6864-1.6864,0-.93103,.75543-1.68286,1.6864-1.6864Zm-2.82562,6.18115c0-.93134,.755-1.6864,1.68634-1.6864h2.24854c.93134,0,1.68634,.75507,1.68634,1.6864v1.6864h-5.62122v-1.6864Zm-3.91992-6.18115c.93109,.00354,1.6864,.75537,1.6864,1.6864,0,.92963-.75427,1.68292-1.6864,1.6864-.93097-.00348-1.68634-.75531-1.68634-1.6864,0-.93103,.75537-1.68286,1.68634-1.6864Zm-2.82562,6.18115c0-.93134,.75507-1.6864,1.6864-1.6864h2.24847c.9314,0,1.6864,.75507,1.6864,1.6864v1.6864h-5.62128v-1.6864Z"/><path class="d" d="M62.84782,172.62738h4.56726c.20966,0,.39941-.11945,.48309-.30426,.0838-.18494,.04559-.40021-.09674-.54773l-2.28363-2.36584c-.19971-.20667-.57306-.20667-.77264,0l-2.28357,2.36584c-.14252,.14758-.18048,.36298-.09686,.54779s.27332,.3042,.48309,.3042Z"/><path class="f" d="M860.7465,247.37616c-8.97522,0-16.25104,7.27588-16.25104,16.25104s7.27582,16.25104,16.25104,16.25104,16.25104-7.27576,16.25104-16.25104-7.27588-16.25104-16.25104-16.25104Zm6.86243,7.25696c1.24304,0,2.2486,1.00555,2.2486,2.24854s-1.00555,2.24847-2.2486,2.24847c-1.24365,0-2.24841-1.00549-2.24841-2.24847s1.00549-2.24854,2.24841-2.24854Zm-12.3667,0c1.24365,0,2.24847,1.00555,2.24847,2.24854s-1.00555,2.24847-2.24847,2.24847c-1.24274,0-2.24854-1.00549-2.24854-2.24847s1.00476-2.24854,2.24854-2.24854Zm3.35773,11.24268c0,.62079-.50348,1.12421-1.12427,1.12421v4.49701c0,.62091-.50336,1.12427-1.12427,1.12427h-2.24847c-.62091,0-1.12427-.50336-1.12427-1.12427v-4.49701c-.62079,0-1.12427-.50342-1.12427-1.12421v-3.3728c0-1.24017,1.00653-2.24847,2.24854-2.24847h2.24847c1.24182,0,2.24854,1.00671,2.24854,2.24847v3.3728Zm3.09167,6.18335c0,.3092-.25299,.56213-.56213,.56213h-.56213c-.3092,0-.56213-.25293-.56213-.56213v-16.86377c0-.3092,.25293-.56213,.56213-.56213h.56213c.30914,0,.56213,.25476,.56213,.56213v16.86377Zm9.83685-3.93488h-1.68597v3.37274c0,.62091-.50336,1.12427-1.12427,1.12427h-2.24854c-.62097,0-1.12427-.50336-1.12427-1.12427v-3.37274h-1.68634c-.37244,0-.64294-.35834-.57166-.71631l1.69446-5.93048c.20654-.72375,.86847-1.22296,1.6214-1.22296h2.31842c.78345,0,1.44751,.4989,1.65125,1.2226l1.6969,5.93042c.10187,.3584-.16864,.71674-.54138,.71674Z"/><path class="d" d="M880.24772,263.6272c0-8.9566-6.07739-16.50256-14.31927-18.78046-1.65308-.45685-3.38556-.72076-5.18195-.72076-10.75299,0-19.50122,8.74823-19.50122,19.50122s8.74823,19.50128,19.50122,19.50128c.02136,0,.04193-.00311,.06323-.00317,10.72369-.03461,19.43799-8.76642,19.43799-19.49811Zm-19.50122,16.25104c-8.97522,0-16.25104-7.27576-16.25104-16.25104s7.27582-16.25104,16.25104-16.25104,16.25104,7.27588,16.25104,16.25104-7.27588,16.25104-16.25104,16.25104Z"/><path class="d" d="M870.37297,261.47711c-.20374-.72369-.8678-1.2226-1.65125-1.2226h-2.31842c-.75293,0-1.41486,.49921-1.6214,1.22296l-1.69446,5.93048c-.07129,.35797,.19922,.71631,.57166,.71631h1.68634v3.37274c0,.62091,.5033,1.12427,1.12427,1.12427h2.24854c.62091,0,1.12427-.50336,1.12427-1.12427v-3.37274h1.68597c.37274,0,.64325-.35834,.54138-.71674l-1.6969-5.93042Z"/><path class="d" d="M856.35142,260.25452h-2.24847c-1.242,0-2.24854,1.0083-2.24854,2.24847v3.3728c0,.62079,.50348,1.12421,1.12427,1.12421v4.49701c0,.62091,.50336,1.12427,1.12427,1.12427h2.24847c.62091,0,1.12427-.50336,1.12427-1.12427v-4.49701c.62079,0,1.12427-.50342,1.12427-1.12421v-3.3728c0-1.24176-1.00671-2.24847-2.24854-2.24847Z"/><rect class="d" x="860.00523" y="254.63324" width="1.6864" height="17.98804" rx=".56213" ry=".56213"/><path class="d" d="M867.60893,259.13013c1.24304,0,2.2486-1.00549,2.2486-2.24847s-1.00555-2.24854-2.2486-2.24854c-1.24292,0-2.24841,1.00555-2.24841,2.24854s1.00476,2.24847,2.24841,2.24847Z"/><path class="d" d="M855.24223,259.13013c1.24292,0,2.24847-1.00549,2.24847-2.24847s-1.00482-2.24854-2.24847-2.24854c-1.24377,0-2.24854,1.00555-2.24854,2.24854s1.0058,2.24847,2.24854,2.24847Z"/><path class="f" d="M256.20781,279.87823c8.97516,0,16.25104-7.27576,16.25104-16.25104s-7.27588-16.25104-16.25104-16.25104-16.25104,7.27588-16.25104,16.25104,7.27582,16.25104,16.25104,16.25104Zm6.86249-25.24512c1.24298,0,2.24854,1.00555,2.24854,2.24854s-1.00555,2.24847-2.24854,2.24847c-1.24371,0-2.24847-1.00549-2.24847-2.24847s1.00549-2.24854,2.24847-2.24854Zm-2.82709,6.84436c.2066-.72375,.86847-1.22296,1.6214-1.22296h2.31842c.78345,0,1.44751,.4989,1.65125,1.2226l1.6969,5.93042c.10193,.3584-.16864,.71674-.54138,.71674h-1.68597v3.37274c0,.62091-.50336,1.12427-1.12427,1.12427h-2.24854c-.62091,0-1.12427-.50336-1.12427-1.12427v-3.37274h-1.68634c-.37244,0-.64294-.35834-.57166-.71631l1.69446-5.93048Zm-4.77667-6.2821c0-.3092,.25293-.56213,.56213-.56213h.56213c.30914,0,.56213,.25476,.56213,.56213v16.86377c0,.3092-.25299,.56213-.56213,.56213h-.56213c-.3092,0-.56213-.25293-.56213-.56213v-16.86377Zm-4.763-.56226c1.24365,0,2.24847,1.00555,2.24847,2.24854s-1.00549,2.24847-2.24847,2.24847c-1.24274,0-2.24854-1.00549-2.24854-2.24847s1.00476-2.24854,2.24854-2.24854Zm-3.38782,7.86987c0-1.24017,1.00653-2.24847,2.24854-2.24847h2.24847c1.24182,0,2.24854,1.00671,2.24854,2.24847v3.3728c0,.62079-.50348,1.12421-1.12427,1.12421v4.49701c0,.62091-.50336,1.12427-1.12427,1.12427h-2.24847c-.62091,0-1.12427-.50336-1.12427-1.12427v-4.49701c-.62079,0-1.12427-.50342-1.12427-1.12421v-3.3728Z"/><path class="d" d="M236.70659,263.6272c0,8.80603,5.87036,16.25922,13.9007,18.67261,1.77557,.53363,3.65356,.82867,5.60052,.82867,10.75305,0,19.50128-8.74823,19.50128-19.50128s-8.74823-19.50122-19.50128-19.50122c-3.78638,0-7.31244,1.10217-10.30725,2.97717-5.51013,3.44977-9.19397,9.5575-9.19397,16.52405Zm19.50122-16.25104c8.97516,0,16.25104,7.27588,16.25104,16.25104s-7.27588,16.25104-16.25104,16.25104-16.25104-7.27576-16.25104-16.25104,7.27582-16.25104,16.25104-16.25104Z"/><rect class="d" x="255.46654" y="254.63324" width="1.6864" height="17.98804" rx=".56213" ry=".56213"/><path class="d" d="M259.12041,268.12427h1.68634v3.37274c0,.62091,.50336,1.12427,1.12427,1.12427h2.24854c.62091,0,1.12427-.50336,1.12427-1.12427v-3.37274h1.68597c.37274,0,.64331-.35834,.54138-.71674l-1.6969-5.93042c-.20374-.72369-.8678-1.2226-1.65125-1.2226h-2.31842c-.75293,0-1.41479,.49921-1.6214,1.22296l-1.69446,5.93048c-.07129,.35797,.19922,.71631,.57166,.71631Z"/><path class="d" d="M250.70353,259.13013c1.24298,0,2.24847-1.00549,2.24847-2.24847s-1.00482-2.24854-2.24847-2.24854c-1.24377,0-2.24854,1.00555-2.24854,2.24854s1.0058,2.24847,2.24854,2.24847Z"/><path class="d" d="M263.0703,259.13013c1.24298,0,2.24854-1.00549,2.24854-2.24847s-1.00555-2.24854-2.24854-2.24854-2.24847,1.00555-2.24847,2.24854,1.00476,2.24847,2.24847,2.24847Z"/><path class="d" d="M248.43999,267v4.49701c0,.62091,.50336,1.12427,1.12427,1.12427h2.24847c.62091,0,1.12427-.50336,1.12427-1.12427v-4.49701c.62079,0,1.12427-.50342,1.12427-1.12421v-3.3728c0-1.24176-1.00671-2.24847-2.24854-2.24847h-2.24847c-1.242,0-2.24854,1.0083-2.24854,2.24847v3.3728c0,.62079,.50348,1.12421,1.12427,1.12421Z"/><path class="f" d="M781.65812,453.22266c-8.97522,0-16.25104,7.27588-16.25104,16.25104,0,2.24384,.45477,4.38147,1.2771,6.32568,.61676,1.45819,1.44031,2.80762,2.43384,4.01154,.33118,.40131,.68127,.78644,1.04889,1.15405,2.94086,2.94092,7.0036,4.75983,11.49121,4.75983s8.55035-1.81891,11.49121-4.75983c.36761-.36761,.71771-.75275,1.04889-1.15405,.99353-1.20392,1.81702-2.55334,2.43384-4.01154,.82233-1.94421,1.2771-4.08185,1.2771-6.32568,0-8.97516-7.27588-16.25104-16.25104-16.25104Zm9.14868,10.53314h-3.43073v3.43079c0,.63141-.51141,1.14355-1.14368,1.14355h-3.43073v3.43079c0,.63147-.51141,1.14362-1.14355,1.14362h-3.43079v3.43079c0,.63141-.51141,1.14355-1.14362,1.14355h-4.57434c-.63226,0-1.14362-.51215-1.14362-1.14355,0-.63153,.51135-1.14368,1.14362-1.14368h3.43073v-3.43073c0-.63147,.51141-1.14362,1.14362-1.14362h3.43073v-3.43073c0-.63153,.51141-1.14362,1.14368-1.14362h3.43073v-3.43079c0-.63147,.51141-1.14355,1.14355-1.14355h4.5744c.63257,0,1.14362,.51208,1.14362,1.14355,0,.63153-.51141,1.14362-1.14362,1.14362Z"/><path class="d" d="M781.65812,449.97247c-10.75305,0-19.50122,8.74823-19.50122,19.50122s8.74817,19.50128,19.50122,19.50128,19.50122-8.74823,19.50122-19.50128-8.74817-19.50122-19.50122-19.50122Zm14.97394,25.8269c-.61682,1.45819-1.44031,2.80762-2.43384,4.01154-.33118,.40131-.68127,.78644-1.04889,1.15405-2.94086,2.94092-7.0036,4.75983-11.49121,4.75983s-8.55035-1.81891-11.49121-4.75983c-.36761-.36761-.71771-.75275-1.04889-1.15405-.99353-1.20392-1.81708-2.55334-2.43384-4.01154-.82233-1.94421-1.2771-4.08185-1.2771-6.32568,0-8.97516,7.27582-16.25104,16.25104-16.25104s16.25104,7.27588,16.25104,16.25104c0,2.24384-.45477,4.38147-1.2771,6.32568Z"/><path class="d" d="M790.80681,461.46863h-4.5744c-.63214,0-1.14355,.51208-1.14355,1.14355v3.43079h-3.43073c-.63226,0-1.14368,.51208-1.14368,1.14362v3.43073h-3.43073c-.6322,0-1.14362,.51215-1.14362,1.14362v3.43073h-3.43073c-.63226,0-1.14362,.51215-1.14362,1.14368,0,.63141,.51135,1.14355,1.14362,1.14355h4.57434c.6322,0,1.14362-.51215,1.14362-1.14355v-3.43079h3.43079c.63214,0,1.14355-.51215,1.14355-1.14362v-3.43079h3.43073c.63226,0,1.14368-.51215,1.14368-1.14355v-3.43079h3.43073c.6322,0,1.14362-.51208,1.14362-1.14362,0-.63147-.51105-1.14355-1.14362-1.14355Z"/><path class="f" d="M879.35808,492.05042c2.46704,5.83276,8.24249,9.92542,14.97394,9.92542s12.50684-4.09265,14.97394-9.92542c.82233-1.94427,1.2771-4.08185,1.2771-6.32562,0-5.6095-2.8421-10.55524-7.16492-13.47565-.86456-.58411-1.78839-1.08716-2.7605-1.49835-.97217-.41113-1.99261-.73053-3.05048-.94696-1.05792-.21649-2.15326-.33014-3.27515-.33014s-2.21722,.11365-3.27515,.33014c-1.05792,.21643-2.07843,.53583-3.05054,.94696-.97217,.41119-1.89587,.91425-2.76044,1.49835-4.32281,2.92041-7.16492,7.86615-7.16492,13.47565,0,2.24377,.45477,4.38135,1.2771,6.32562Zm5.8252-.60773h3.43073v-3.43073c0-.1579,.03192-.30823,.08978-.44507,.17346-.4104,.57971-.69855,1.05383-.69855h3.43073v-3.43073c0-.63153,.51141-1.14362,1.14368-1.14362h3.43073v-3.43079c0-.63147,.51141-1.14355,1.14355-1.14355h4.5744c.63251,0,1.14362,.51208,1.14362,1.14355,0,.63153-.51141,1.14362-1.14362,1.14362h-3.43073v3.43079c0,.63141-.51147,1.14355-1.14368,1.14355h-3.43073v3.43085c0,.15784-.03198,.30823-.08978,.44501-.05786,.13678-.14148,.26001-.24493,.36353-.20691,.20697-.49274,.33502-.80884,.33502h-3.43085v3.43079c0,.15784-.03198,.30829-.08978,.44507-.11566,.27362-.33472,.4928-.6084,.60858-.13684,.05786-.28735,.0899-.44537,.0899h-4.57434c-.15808,0-.30859-.03204-.44543-.0899-.27368-.11578-.49274-.33496-.6084-.60858-.0578-.13678-.08978-.28723-.08978-.44507,0-.63153,.51135-1.14368,1.14362-1.14368Z"/><path class="d" d="M894.33201,505.22601c10.75305,0,19.50122-8.74817,19.50122-19.50122s-8.74817-19.50128-19.50122-19.50128-19.50122,8.74823-19.50122,19.50128,8.74817,19.50122,19.50122,19.50122Zm-9.08612-32.97687c.86456-.58411,1.78827-1.08716,2.76044-1.49835,.97211-.41113,1.99261-.73053,3.05054-.94696,1.05792-.21649,2.15326-.33014,3.27515-.33014s2.21722,.11365,3.27515,.33014c1.05786,.21643,2.07831,.53583,3.05048,.94696,.97211,.41119,1.89594,.91425,2.7605,1.49835,4.32281,2.92041,7.16492,7.86615,7.16492,13.47565,0,2.24377-.45477,4.38135-1.2771,6.32562-2.4671,5.83276-8.24255,9.92542-14.97394,9.92542s-12.5069-4.09265-14.97394-9.92542c-.82233-1.94427-1.2771-4.08185-1.2771-6.32562,0-5.6095,2.8421-10.55524,7.16492-13.47565Z"/><path class="d" d="M895.47557,488.01202v-.00006c0,.15784-.03198,.30829-.08978,.44507,.0578-.13678,.08978-.28717,.08978-.44501Z"/><path class="d" d="M884.73784,493.64001c.13684,.05786,.28735,.0899,.44543,.0899h4.57434c.15802,0,.30853-.03204,.44537-.0899,.27368-.11578,.49274-.33496,.6084-.60858,.0578-.13678,.08978-.28723,.08978-.44507v-3.43079h3.43085c.3161,0,.60193-.12805,.80884-.33502,.10345-.10352,.18707-.22675,.24493-.36353,.0578-.13678,.08978-.28723,.08978-.44507v-3.43079h3.43073c.6322,0,1.14368-.51215,1.14368-1.14355v-3.43079h3.43073c.6322,0,1.14362-.51208,1.14362-1.14362,0-.63147-.51111-1.14355-1.14362-1.14355h-4.5744c-.63214,0-1.14355,.51208-1.14355,1.14355v3.43079h-3.43073c-.63226,0-1.14368,.51208-1.14368,1.14362v3.43073h-3.43073c-.47412,0-.88037,.28815-1.05383,.69855-.05786,.13684-.08978,.28717-.08978,.44507v3.43073h-3.43073c-.63226,0-1.14362,.51215-1.14362,1.14368,0,.15784,.03198,.30829,.08978,.44507,.11566,.27362,.33472,.4928,.6084,.60858Z"/><path class="f" d="M373.04051,454.49976c-.97217-.41113-1.99255-.73053-3.05048-.94696-1.05792-.21649-2.15326-.33014-3.27515-.33014-8.97522,0-16.25104,7.27588-16.25104,16.25104,0,2.24384,.45477,4.38147,1.2771,6.32568,.61676,1.45819,1.44031,2.80762,2.43384,4.01154,.33118,.40131,.68127,.78644,1.04889,1.15405,2.94086,2.94092,7.0036,4.75983,11.49121,4.75983s8.55035-1.81891,11.49121-4.75983c.36761-.36761,.71771-.75275,1.04889-1.15405,.99359-1.20392,1.81702-2.55334,2.43384-4.01154,.82233-1.94421,1.2771-4.08185,1.2771-6.32568,0-2.80475-.71051-5.44354-1.96143-7.74622-.50037-.92108-1.08716-1.78833-1.74951-2.59094-1.65594-2.00653-3.78418-3.60883-6.21448-4.63678Zm2.82306,9.25604h-3.43073v3.43079c0,.63141-.51141,1.14355-1.14362,1.14355h-3.43073v3.43079c0,.11841-.01801,.2326-.05139,.34003-.10016,.3222-.33893,.58344-.64685,.71368-.13684,.05786-.28729,.0899-.44537,.0899h-3.43079v3.43079c0,.63141-.51141,1.14355-1.14355,1.14355h-4.5744c-.6322,0-1.14355-.51215-1.14355-1.14355,0-.63153,.51135-1.14368,1.14355-1.14368h3.43073v-3.43073c0-.63147,.51141-1.14362,1.14368-1.14362h3.43073v-3.43073c0-.63153,.51141-1.14362,1.14362-1.14362h3.43073v-3.43079c0-.63147,.51141-1.14355,1.14362-1.14355h4.57434c.63257,0,1.14368,.51208,1.14368,1.14355,0,.63153-.51141,1.14362-1.14368,1.14362Z"/><path class="d" d="M366.71489,449.97247c-10.75299,0-19.50122,8.74823-19.50122,19.50122s8.74823,19.50128,19.50122,19.50128,19.50128-8.74823,19.50128-19.50128-8.74823-19.50122-19.50128-19.50122Zm16.25104,19.50122c0,2.24384-.45477,4.38147-1.2771,6.32568-.61682,1.45819-1.44025,2.80762-2.43384,4.01154-.33118,.40131-.68127,.78644-1.04889,1.15405-2.94086,2.94092-7.0036,4.75983-11.49121,4.75983s-8.55035-1.81891-11.49121-4.75983c-.36761-.36761-.71771-.75275-1.04889-1.15405-.99353-1.20392-1.81708-2.55334-2.43384-4.01154-.82233-1.94421-1.2771-4.08185-1.2771-6.32568,0-8.97516,7.27582-16.25104,16.25104-16.25104,1.12189,0,2.21722,.11365,3.27515,.33014,1.05792,.21643,2.07831,.53583,3.05048,.94696,2.4303,1.02795,4.55853,2.63025,6.21448,4.63678,.66235,.80261,1.24915,1.66986,1.74951,2.59094,1.25092,2.30267,1.96143,4.94147,1.96143,7.74622Z"/><path class="d" d="M367.85844,471.76093c0,.11841-.01794,.2326-.05133,.34003,.03339-.10742,.05139-.22162,.05139-.34003v-3.43079h-.00006v3.43079Z"/><path class="d" d="M375.86357,461.46863h-4.57434c-.6322,0-1.14362,.51208-1.14362,1.14355v3.43079h-3.43073c-.6322,0-1.14362,.51208-1.14362,1.14362v3.43073h-3.43073c-.63226,0-1.14368,.51215-1.14368,1.14362v3.43073h-3.43073c-.6322,0-1.14355,.51215-1.14355,1.14368,0,.63141,.51135,1.14355,1.14355,1.14355h4.5744c.63214,0,1.14355-.51215,1.14355-1.14355v-3.43079h3.43079c.15808,0,.30853-.03204,.44537-.0899,.30792-.13025,.54669-.39148,.64685-.71368,.03339-.10742,.05133-.22162,.05133-.34003v-3.43079h3.43079c.6322,0,1.14362-.51215,1.14362-1.14355v-3.43079h3.43073c.63226,0,1.14368-.51208,1.14368-1.14362,0-.63147-.51111-1.14355-1.14368-1.14355Z"/><path class="d" d="M552.78154,259.28516c-.31543-1.30469-.7085-2.85742-1.18115-4.65771-.47266-1.79932-.84375-3.35205-1.11377-4.65771-.13525,.85547-.34912,1.86768-.64111,3.0376-.29346,1.1709-.58545,2.31836-.87793,3.44238-.29297,1.12549-.5293,2.04834-.7085,2.76758l-3.17285,11.81299h10.86816l-3.17285-11.74512Z"/><path class="d" d="M628.34843,254.62744c-.47266-1.79932-.84375-3.35205-1.11377-4.65771-.13525,.85547-.34912,1.86768-.64111,3.0376-.29346,1.1709-.58545,2.31836-.87793,3.44238-.29297,1.12549-.5293,2.04834-.7085,2.76758l-3.17285,11.81299h10.86816l-3.17285-11.74512c-.31543-1.30469-.7085-2.85742-1.18115-4.65771Z"/><path class="d" d="M600.50419,335.62988c-.47266-1.79932-.84375-3.35205-1.11377-4.65771-.13525,.85547-.34912,1.86768-.64111,3.0376-.29346,1.1709-.58545,2.31836-.87793,3.44238-.29297,1.12549-.5293,2.04834-.7085,2.76758l-3.17285,11.81299h10.86816l-3.17285-11.74512c-.31543-1.30469-.7085-2.85742-1.18115-4.65771Z"/><path d="M524.56621,288.85059v-24.97559h-17.61768v8.23535h7.96484v10.46289c-.80957,.18018-1.67676,.34912-2.59863,.50635-.92285,.1582-2.01465,.23584-3.27393,.23584-2.61035,0-4.74805-.68555-6.4126-2.05859-1.66553-1.37207-2.89209-3.28418-3.67871-5.73779-.78809-2.45215-1.18115-5.29883-1.18115-8.53906,0-5.17432,1.15771-9.23584,3.47607-12.18408,2.31738-2.94678,5.52344-4.42139,9.61914-4.42139,1.89014,0,3.7124,.24805,5.46777,.74268,1.75488,.49561,3.35156,1.12549,4.79248,1.89014l3.10498-7.96533c-1.8457-.89941-3.91504-1.62012-6.20996-2.16016-2.29541-.54004-4.70312-.81006-7.22266-.81006-4.95117,0-9.1582,1.0127-12.62305,3.0376-3.46582,2.02539-6.09814,4.8833-7.89795,8.57275-1.80029,3.69043-2.69971,8.05615-2.69971,13.0957,0,7.9209,1.78857,14.04004,5.36621,18.36035s8.7417,6.47998,15.4917,6.47998c3.05957,0,5.89502-.24756,8.50537-.74219,2.60938-.49463,5.15234-1.16992,7.62744-2.02539Z"/><path d="M542.99394,279.40039h15.05273l3.10498,11.54297h10.59814l-15.18799-48.33154h-12.28564l-15.05273,48.33154h10.59766l3.17285-11.54297Zm5.26514-20.18311c.1792-.71924,.41553-1.64209,.7085-2.76758,.29248-1.12402,.58447-2.27148,.87793-3.44238,.29199-1.16992,.50586-2.18213,.64111-3.0376,.27002,1.30566,.64111,2.8584,1.11377,4.65771,.47266,1.80029,.86572,3.35303,1.18115,4.65771l3.17285,11.74512h-10.86816l3.17285-11.81299Z"/><polygon points="604.1497 282.64062 587.00419 282.64062 587.00419 242.74707 577.14921 242.74707 577.14921 290.94336 604.1497 290.94336 604.1497 282.64062"/><path d="M633.30986,242.61182h-12.28564l-15.05273,48.33154h10.59766l3.17285-11.54297h15.05273l3.10498,11.54297h10.59766l.00031-.00055-15.18781-48.33099Zm-11.47559,28.41846l3.17285-11.81299c.1792-.71924,.41553-1.64209,.7085-2.76758,.29248-1.12402,.58447-2.27148,.87793-3.44238,.29199-1.16992,.50586-2.18213,.64111-3.0376,.27002,1.30566,.64111,2.8584,1.11377,4.65771,.47266,1.80029,.86572,3.35303,1.18115,4.65771l3.17285,11.74512h-10.86816Z"/><polygon points="688.72832 290.94336 674.41826 266.5752 687.51347 242.74707 676.9832 242.74707 668.68046 259.28516 660.10771 242.74707 649.51005 242.74707 662.53789 266.23779 648.49766 290.94281 648.49736 290.94336 648.49785 290.94336 658.96025 290.94336 668.41044 273.46045 677.658 290.94336 688.72832 290.94336"/><polygon points="707.96611 262.5249 699.2581 242.74707 688.72783 242.74707 703.03837 272.58301 703.03837 290.94336 712.82597 290.94336 712.82597 272.24512 727.13652 242.74707 716.67363 242.74707 707.96611 262.5249"/><path d="M532.96953,344.13525c-1.98096-.98975-3.56738-1.85645-4.75928-2.59912-1.19287-.74268-2.07031-1.50732-2.63232-2.29492-.56348-.78711-.84375-1.74365-.84375-2.86914,0-1.39404,.47266-2.5415,1.41748-3.44238,.94482-.8999,2.31738-1.3501,4.11768-1.3501,1.62012,0,3.24023,.23633,4.85986,.70898,1.62012,.47217,3.41943,1.15918,5.40039,2.05859l3.0376-8.03271c-2.20557-1.03467-4.37695-1.83301-6.51416-2.39648-2.1377-.56201-4.37695-.84375-6.71631-.84375-4.77051,0-8.52832,1.21533-11.27295,3.64551-2.74512,2.42969-4.09521,5.76074-4.0498,9.99023,0,2.79053,.54004,5.08545,1.62012,6.88525,1.07959,1.80029,2.44043,3.27344,4.0835,4.42139,1.64258,1.14746,3.27393,2.14941,4.89404,3.00342,2.7002,1.39551,4.76953,2.64453,6.20996,3.74658,1.43994,1.10303,2.16016,2.50928,2.16016,4.21875,0,1.48535-.50635,2.71191-1.51855,3.67871-1.0127,.96826-2.62207,1.45166-4.82666,1.45166-2.11572,0-4.29785-.37158-6.54736-1.11377-2.25098-.74268-4.43311-1.63086-6.54785-2.6665v9.4502c1.89014,.99023,3.90332,1.71094,6.0415,2.16016,2.13672,.44922,4.37598,.6748,6.71631,.6748,5.17432,0,9.20264-1.30469,12.08301-3.91504,2.87939-2.60938,4.31982-6.0752,4.31982-10.39502,0-3.55469-.93408-6.36768-2.80127-8.43799-1.86768-2.06934-4.51172-3.98242-7.93115-5.7373Z"/><polygon points="580.35527 323.74951 547.41435 323.74951 547.41435 332.05225 558.95732 332.05225 558.95732 371.9458 568.81279 371.9458 568.81279 332.05225 580.35527 332.05225 580.35527 323.74951"/><path d="M593.17998,323.61426l-15.05273,48.33154h10.59766l3.17285-11.54297h15.05273l3.10498,11.54297h10.59814l-15.18799-48.33154h-12.28564Zm.81006,28.41846l3.17285-11.81299c.1792-.71924,.41553-1.64209,.7085-2.76758,.29248-1.12402,.58447-2.27148,.87793-3.44238,.29199-1.16992,.50586-2.18213,.64111-3.0376,.27002,1.30566,.64111,2.8584,1.11377,4.65771,.47266,1.80029,.86572,3.35303,1.18115,4.65771l3.17285,11.74512h-10.86816Z"/><path d="M642.65947,353.11279h7.96484v10.46289c-.80957,.18018-1.67676,.34912-2.59863,.50635-.92285,.1582-2.01465,.23584-3.27393,.23584-2.61035,0-4.74805-.68555-6.4126-2.05859-1.66553-1.37207-2.89209-3.28418-3.67871-5.73779-.78809-2.45215-1.18115-5.29883-1.18115-8.53906,0-5.17432,1.15771-9.23584,3.47607-12.18408,2.31738-2.94678,5.52344-4.42139,9.61914-4.42139,1.89014,0,3.7124,.24805,5.46777,.74268,1.75488,.49561,3.35156,1.12549,4.79248,1.89014l3.10498-7.96533c-1.8457-.89941-3.91504-1.62012-6.20996-2.16016-2.29541-.54004-4.70312-.81006-7.22266-.81006-4.95117,0-9.1582,1.0127-12.62305,3.0376-3.46582,2.02539-6.09814,4.8833-7.89795,8.57275-1.80029,3.69043-2.69971,8.05615-2.69971,13.0957,0,7.9209,1.78857,14.04004,5.36621,18.36035s8.7417,6.47998,15.4917,6.47998c3.05957,0,5.89502-.24756,8.50537-.74219,2.60938-.49463,5.15234-1.16992,7.62744-2.02539v-24.97559h-17.61768v8.23535Z"/><polygon points="670.33476 371.9458 695.85039 371.9458 695.85039 363.64307 680.18974 363.64307 680.18974 351.02002 694.77031 351.02002 694.77031 342.78516 680.18974 342.78516 680.18974 331.91699 695.85039 331.91699 695.85039 323.74951 670.33476 323.74951 670.33476 371.9458"/></g></g></g></svg>